<svg xmlns="http://www.w3.org/2000/svg" width="340" height="140" version="1.1"><line x1="150" x2="192" y1="50" y2="50" style="stroke:#000;stroke-linecap:square;stroke-width:2"/><line x1="218" x2="260" y1="50" y2="50" style="stroke:#000;stroke-linecap:square;stroke-width:2"/><ellipse cx="205" cy="50" rx="12" ry="12" style="fill-opacity:0;fill:#000;stroke:#000;stroke-width:2"/><text x="205" y="50" dominant-baseline="middle" transform="rotate(0, 205, 50)" style="font-family:Arial;font-size:12px;text-anchor:middle">V</text><line x1="260" x2="260" y1="50" y2="100" style="stroke:#000;stroke-linecap:square;stroke-width:2"/><line x1="150" x2="150" y1="50" y2="100" style="stroke:#000;stroke-linecap:square;stroke-width:2"/><line x1="150" x2="180" y1="100" y2="100" style="stroke:#000;stroke-linecap:square;stroke-width:2"/><line x1="80" x2="102" y1="100" y2="100" style="stroke:#000;stroke-linecap:square;stroke-width:2"/><line x1="128" x2="150" y1="100" y2="100" style="stroke:#000;stroke-linecap:square;stroke-width:2"/><ellipse cx="115" cy="100" rx="12" ry="12" style="fill-opacity:0;fill:#000;stroke:#000;stroke-width:2"/><text x="115" y="100" dominant-baseline="middle" transform="rotate(0, 115, 100)" style="font-family:Arial;font-size:12px;text-anchor:middle">A</text><line x1="170" x2="185" y1="100" y2="100" style="stroke:#000;stroke-linecap:square;stroke-width:2"/><line x1="225" x2="240" y1="100" y2="100" style="stroke:#000;stroke-linecap:square;stroke-width:2"/><rect width="40" height="16" x="185" y="92" style="fill-opacity:0;fill:#000;stroke:#000;stroke-width:2"/><text x="205" y="86" dominant-baseline="baseline" transform="rotate(0, 205, 86)" style="font-family:Arial;font-size:11px;text-anchor:middle">R</text><line x1="240" x2="320" y1="100" y2="100" style="stroke:#000;stroke-linecap:square;stroke-width:2"/><line x1="20" x2="80" y1="100" y2="100" style="stroke:#000;stroke-linecap:square;stroke-width:2"/><ellipse cx="260" cy="100" rx="2" ry="2" style="fill-opacity:1;fill:#000;stroke:#000;stroke-width:2"/><ellipse cx="150" cy="100" rx="2" ry="2" style="fill-opacity:1;fill:#000;stroke:#000;stroke-width:2"/></svg>