<svg xmlns="http://www.w3.org/2000/svg" width="380" height="240" version="1.1"><line x1="350" x2="350" y1="50" y2="100" style="stroke:#000;stroke-linecap:square;stroke-width:2"/><line x1="200" x2="200" y1="50" y2="100" style="stroke:#000;stroke-linecap:square;stroke-width:2"/><line x1="200" x2="255" y1="100" y2="100" style="stroke:#000;stroke-linecap:square;stroke-width:2"/><line x1="295" x2="350" y1="100" y2="100" style="stroke:#000;stroke-linecap:square;stroke-width:2"/><rect width="40" height="16" x="255" y="92" style="fill-opacity:0;fill:#000;stroke:#000;stroke-width:2"/><text x="275" y="76" dominant-baseline="baseline" transform="rotate(0, 275, 76)" style="font-family:Arial;font-size:11px;text-anchor:middle">R</text><path d="M 255,100 M 258,117 L 290,82 M 284,82 L 290,82 L 290,88" style="fill-opacity:0;fill:#000;stroke:#000;stroke-linecap:square;stroke-width:2"/><line x1="350" x2="350" y1="100" y2="120" style="stroke:#000;stroke-linecap:square;stroke-width:2"/><line x1="280" x2="350" y1="120" y2="120" style="stroke:#000;stroke-linecap:square;stroke-width:2"/><line x1="200" x2="200" y1="100" y2="150" style="stroke:#000;stroke-linecap:square;stroke-width:2"/><line x1="200" x2="200" y1="150" y2="200" style="stroke:#000;stroke-linecap:square;stroke-width:2"/><line x1="200" x2="260" y1="150" y2="150" style="stroke:#000;stroke-linecap:square;stroke-width:2"/><line x1="300" x2="350" y1="150" y2="150" style="stroke:#000;stroke-linecap:square;stroke-width:2"/><rect width="40" height="16" x="260" y="142" style="fill-opacity:0;fill:#000;stroke:#000;stroke-width:2"/><text x="280" y="164" dominant-baseline="hanging" transform="rotate(0, 280, 164)" style="font-family:Arial;font-size:11px;text-anchor:middle">R1</text><path d="M 260,150 M 274,134 L 280,140 L 286,134 M 280,139 L 280,121" style="fill-opacity:0;fill:#000;stroke:#000;stroke-linecap:square;stroke-width:2"/><line x1="200" x2="262" y1="50" y2="50" style="stroke:#000;stroke-linecap:square;stroke-width:2"/><line x1="288" x2="350" y1="50" y2="50" style="stroke:#000;stroke-linecap:square;stroke-width:2"/><ellipse cx="275" cy="50" rx="12" ry="12" style="fill-opacity:0;fill:#000;stroke:#000;stroke-width:2"/><text x="275" y="50" dominant-baseline="middle" transform="rotate(0, 275, 50)" style="font-family:Arial;font-size:12px;text-anchor:middle">V</text><line x1="350" x2="350" y1="150" y2="200" style="stroke:#000;stroke-linecap:square;stroke-width:2"/><line x1="260" x2="350" y1="200" y2="200" style="stroke:#000;stroke-linecap:square;stroke-width:2"/><line x1="230" x2="242" y1="200" y2="200" style="stroke:#000;stroke-linecap:square;stroke-width:2"/><line x1="242" x2="242" y1="190" y2="210" style="stroke:#000;stroke-linecap:square;stroke-width:2"/><line x1="248" x2="248" y1="195" y2="205" style="stroke:#000;stroke-linecap:square;stroke-width:3"/><line x1="248" x2="260" y1="200" y2="200" style="stroke:#000;stroke-linecap:square;stroke-width:2"/><line x1="200" x2="230" y1="200" y2="200" style="stroke:#000;stroke-linecap:square;stroke-width:2"/><line x1="190" x2="190" y1="50" y2="100" style="stroke:#000;stroke-linecap:square;stroke-width:2"/><line x1="40" x2="40" y1="50" y2="100" style="stroke:#000;stroke-linecap:square;stroke-width:2"/><line x1="40" x2="95" y1="100" y2="100" style="stroke:#000;stroke-linecap:square;stroke-width:2"/><line x1="135" x2="190" y1="100" y2="100" style="stroke:#000;stroke-linecap:square;stroke-width:2"/><rect width="40" height="16" x="95" y="92" style="fill-opacity:0;fill:#000;stroke:#000;stroke-width:2"/><text x="115" y="86" dominant-baseline="baseline" transform="rotate(0, 115, 86)" style="font-family:Arial;font-size:11px;text-anchor:middle">Rx</text><line x1="190" x2="190" y1="100" y2="120" style="stroke:#000;stroke-linecap:square;stroke-width:2"/><line x1="120" x2="190" y1="120" y2="120" style="stroke:#000;stroke-linecap:square;stroke-width:2"/><line x1="40" x2="40" y1="100" y2="150" style="stroke:#000;stroke-linecap:square;stroke-width:2"/><line x1="40" x2="40" y1="150" y2="200" style="stroke:#000;stroke-linecap:square;stroke-width:2"/><line x1="40" x2="100" y1="150" y2="150" style="stroke:#000;stroke-linecap:square;stroke-width:2"/><line x1="140" x2="190" y1="150" y2="150" style="stroke:#000;stroke-linecap:square;stroke-width:2"/><rect width="40" height="16" x="100" y="142" style="fill-opacity:0;fill:#000;stroke:#000;stroke-width:2"/><text x="120" y="164" dominant-baseline="hanging" transform="rotate(0, 120, 164)" style="font-family:Arial;font-size:11px;text-anchor:middle">R1</text><path d="M 100,150 M 114,134 L 120,140 L 126,134 M 120,139 L 120,121" style="fill-opacity:0;fill:#000;stroke:#000;stroke-linecap:square;stroke-width:2"/><line x1="40" x2="102" y1="50" y2="50" style="stroke:#000;stroke-linecap:square;stroke-width:2"/><line x1="128" x2="190" y1="50" y2="50" style="stroke:#000;stroke-linecap:square;stroke-width:2"/><ellipse cx="115" cy="50" rx="12" ry="12" style="fill-opacity:0;fill:#000;stroke:#000;stroke-width:2"/><text x="115" y="50" dominant-baseline="middle" transform="rotate(0, 115, 50)" style="font-family:Arial;font-size:12px;text-anchor:middle">V</text><line x1="190" x2="190" y1="150" y2="200" style="stroke:#000;stroke-linecap:square;stroke-width:2"/><line x1="100" x2="190" y1="200" y2="200" style="stroke:#000;stroke-linecap:square;stroke-width:2"/><line x1="70" x2="82" y1="200" y2="200" style="stroke:#000;stroke-linecap:square;stroke-width:2"/><line x1="82" x2="82" y1="190" y2="210" style="stroke:#000;stroke-linecap:square;stroke-width:2"/><line x1="88" x2="88" y1="195" y2="205" style="stroke:#000;stroke-linecap:square;stroke-width:3"/><line x1="88" x2="100" y1="200" y2="200" style="stroke:#000;stroke-linecap:square;stroke-width:2"/><line x1="40" x2="70" y1="200" y2="200" style="stroke:#000;stroke-linecap:square;stroke-width:2"/><ellipse cx="350" cy="100" rx="2" ry="2" style="fill-opacity:1;fill:#000;stroke:#000;stroke-width:2"/><ellipse cx="200" cy="100" rx="2" ry="2" style="fill-opacity:1;fill:#000;stroke:#000;stroke-width:2"/><ellipse cx="200" cy="150" rx="2" ry="2" style="fill-opacity:1;fill:#000;stroke:#000;stroke-width:2"/><ellipse cx="190" cy="100" rx="2" ry="2" style="fill-opacity:1;fill:#000;stroke:#000;stroke-width:2"/><ellipse cx="40" cy="100" rx="2" ry="2" style="fill-opacity:1;fill:#000;stroke:#000;stroke-width:2"/><ellipse cx="40" cy="150" rx="2" ry="2" style="fill-opacity:1;fill:#000;stroke:#000;stroke-width:2"/></svg>