<?xml version="1.0" encoding="utf-8"?>
<!-- Generator: Adobe Illustrator 26.0.3, SVG Export Plug-In . SVG Version: 6.00 Build 0)  -->
<svg version="1.1" id="Layer_1" xmlns="http://www.w3.org/2000/svg" xmlns:xlink="http://www.w3.org/1999/xlink" x="0px" y="0px"
	 viewBox="0 0 280 280" style="enable-background:new 0 0 280 280;" xml:space="preserve">
<style type="text/css">
	.st0{fill:none;stroke:#000000;stroke-width:2;stroke-linecap:square;}
	.st1{fill-opacity:0;stroke:#000000;stroke-width:2;}
	.st2{enable-background:new    ;}
	.st3{fill:none;stroke:#000000;stroke-width:3;stroke-linecap:square;}
	.st4{fill-opacity:0;stroke:#000000;stroke-width:2;stroke-linecap:square;}
	.st5{stroke:#000000;stroke-width:2;}
	.st6{fill:none;stroke:#000000;stroke-width:2;}
	.st7{fill:none;stroke:#000000;stroke-width:2;stroke-dasharray:11,11;}
	.st8{fill:none;stroke:#000000;stroke-width:2;stroke-dasharray:12.4,12.4;}
	.st9{fill:none;stroke:#000000;stroke-width:2;stroke-dasharray:12.1579,12.1579;}
	.st10{fill:none;stroke:#000000;stroke-width:2;stroke-dasharray:12,12;}
</style>
<line class="st0" x1="40" y1="190" x2="40" y2="202"/>
<line class="st0" x1="40" y1="228" x2="40" y2="240"/>
<g>
	<ellipse class="st1" cx="40" cy="215" rx="12" ry="12"/>
	<g class="st2">
		<path d="M40.3,219.1l1.2-0.1l-0.7-2.3h-2.8l-0.7,2.3l1.1,0.2v0.4h-2.7v-0.4l1-0.2l2.8-8.4h1.2l2.9,8.5l0.8,0.1v0.4h-4.1V219.1z
			 M38.1,216.2h2.6l-1.3-4.1L38.1,216.2z"/>
	</g>
</g>
<line class="st0" x1="100" y1="240" x2="156" y2="240"/>
<line class="st0" x1="184" y1="240" x2="240" y2="240"/>
<ellipse class="st1" cx="159" cy="240" rx="3" ry="3"/>
<ellipse class="st1" cx="181" cy="240" rx="3" ry="3"/>
<line class="st0" x1="162" y1="238" x2="179" y2="232"/>
<line class="st0" x1="240" y1="190" x2="240" y2="240"/>
<line class="st0" x1="70" y1="240" x2="82" y2="240"/>
<line class="st0" x1="82" y1="230" x2="82" y2="250"/>
<line class="st3" x1="88" y1="235" x2="88" y2="245"/>
<line class="st0" x1="88" y1="240" x2="100" y2="240"/>
<line class="st0" x1="40" y1="240" x2="70" y2="240"/>
<line class="st0" x1="240" y1="40" x2="240" y2="60"/>
<line class="st0" x1="40" y1="40" x2="40" y2="100"/>
<line class="st0" x1="40" y1="83" x2="130" y2="83"/>
<line class="st0" x1="40" y1="40" x2="127" y2="40"/>
<line class="st0" x1="153" y1="40" x2="240" y2="40"/>
<g>
	<ellipse class="st1" cx="140" cy="40" rx="12" ry="12"/>
	<g class="st2">
		<path d="M141.5,35.5h3v0.4l-1,0.2l-3,8.5h-1.1l-3-8.5l-0.8-0.1v-0.4h4.2v0.4l-1.3,0.1l2.1,6.5l2.1-6.5l-1.3-0.2V35.5z"/>
	</g>
</g>
<line class="st0" x1="40" y1="90" x2="40" y2="102"/>
<line class="st0" x1="40" y1="128" x2="40" y2="140"/>
<g>
	<ellipse class="st1" cx="40" cy="115" rx="12" ry="12"/>
	<g class="st2">
		<path d="M40.3,119.1l1.2-0.1l-0.7-2.3h-2.8l-0.7,2.3l1.1,0.2v0.4h-2.7v-0.4l1-0.2l2.8-8.4h1.2l2.9,8.5l0.8,0.1v0.4h-4.1V119.1z
			 M38.1,116.2h2.6l-1.3-4.1L38.1,116.2z"/>
	</g>
</g>
<line class="st0" x1="100" y1="140" x2="156" y2="140"/>
<line class="st0" x1="184" y1="140" x2="240" y2="140"/>
<ellipse class="st1" cx="159" cy="140" rx="3" ry="3"/>
<ellipse class="st1" cx="181" cy="140" rx="3" ry="3"/>
<line class="st0" x1="162" y1="138" x2="179" y2="132"/>
<line class="st0" x1="240" y1="60" x2="240" y2="90"/>
<line class="st0" x1="190" y1="53" x2="240" y2="53"/>
<line class="st0" x1="130" y1="83" x2="170" y2="83"/>
<line class="st0" x1="210" y1="83" x2="240" y2="83"/>
<rect x="170" y="75" class="st1" width="40" height="16"/>
<g class="st2">
	<path d="M160.5,60.4h4c1.9,0,3,0.8,3,2.1c0,0.9-0.6,1.7-2.3,2c1.4,0.2,1.8,0.8,2,1.9l0.3,1.8l1,0.1v0.4c-0.5,0.1-0.8,0.2-1.3,0.2
		c-1,0-1.6-0.3-1.7-1.2l-0.3-1.5c-0.2-0.9-0.4-1.3-1.3-1.3h-0.5c0,1.2,0,2.3,0,3.4l1,0.1v0.4h-3.9v-0.4l1-0.1c0-1.1,0-2.2,0-3.4
		v-0.5c0-1.1,0-2.3,0-3.4l-1-0.1V60.4z M163.3,64.3h0.6c1.2,0,1.7-0.8,1.7-1.8c0-1.1-0.6-1.7-1.7-1.7h-0.6
		C163.3,61.9,163.3,63.1,163.3,64.3z"/>
	<path d="M172.7,60.6l0.2,0.1l0,1.8V66c0,0.7,0,1.4,0,2.1l1.5,0.2v0.3h-4.9v-0.3l1.6-0.2l0-2.1v-4.5l-1.3,0.1v-0.4L172.7,60.6z"/>
</g>
<path class="st4" d="M184,67l6,6l6-6 M190,72V54"/>
<line class="st0" x1="240" y1="90" x2="240" y2="140"/>
<line class="st0" x1="70" y1="140" x2="82" y2="140"/>
<line class="st0" x1="82" y1="130" x2="82" y2="150"/>
<line class="st3" x1="88" y1="135" x2="88" y2="145"/>
<line class="st0" x1="88" y1="140" x2="100" y2="140"/>
<line class="st0" x1="40" y1="140" x2="70" y2="140"/>
<ellipse class="st5" cx="240" cy="53" rx="2" ry="2"/>
<ellipse class="st5" cx="40" cy="83" rx="2" ry="2"/>
<ellipse class="st5" cx="240" cy="83" rx="2" ry="2"/>
<g>
	<g>
		<path class="st6" d="M18,97c0-2,0-4,0-6c2,0,4,0,6,0"/>
		<path class="st7" d="M35,91c5.5,0,11,0,16.5,0"/>
		<path class="st6" d="M57,91c2,0,4,0,6,0c0,2,0,4,0,6"/>
		<path class="st6" d="M63,112c0,2,0,4,0,6c2,0,4,0,6,0"/>
		<path class="st8" d="M81.4,118c55.8,0,111.6,0,167.4,0"/>
		<path class="st6" d="M255,118c2,0,4,0,6,0c0,2,0,4,0,6"/>
		<path class="st7" d="M261,135c0,5.5,0,11,0,16.5"/>
		<path class="st6" d="M261,157c0,2,0,4,0,6c-2,0-4,0-6,0"/>
		<path class="st9" d="M242.8,163c-70.9,0-141.8,0-212.8,0"/>
		<path class="st6" d="M24,163c-2,0-4,0-6,0c0-2,0-4,0-6"/>
		<path class="st10" d="M18,145c0-14,0-28,0-42"/>
	</g>
</g>
</svg>
