<?xml version="1.0" encoding="utf-8"?>
<!-- Generator: Adobe Illustrator 26.0.3, SVG Export Plug-In . SVG Version: 6.00 Build 0)  -->
<svg version="1.1" id="Layer_1" xmlns="http://www.w3.org/2000/svg" xmlns:xlink="http://www.w3.org/1999/xlink" x="0px" y="0px"
	 viewBox="0 0 280 340" style="enable-background:new 0 0 280 340;" xml:space="preserve">
<style type="text/css">
	.st0{fill:none;stroke:#000000;stroke-width:2;stroke-linecap:square;}
	.st1{fill-opacity:0;stroke:#000000;stroke-width:2;}
	.st2{enable-background:new    ;}
	.st3{fill:none;stroke:#000000;stroke-width:3;stroke-linecap:square;}
	.st4{fill-opacity:0;stroke:#000000;stroke-width:2;stroke-linecap:square;}
	.st5{stroke:#000000;stroke-width:2;}
	.st6{fill:none;stroke:#000000;stroke-width:2;stroke-miterlimit:10;}
	.st7{fill:none;stroke:#000000;stroke-width:2;stroke-miterlimit:10;stroke-dasharray:12.1579,12.1579;}
	.st8{fill:none;stroke:#000000;stroke-width:2;stroke-miterlimit:10;stroke-dasharray:10.6667,10.6667;}
	.st9{fill:none;stroke:#000000;stroke-width:2;stroke-miterlimit:10;stroke-dasharray:11,11;}
	.st10{fill:none;stroke:#000000;stroke-width:2;stroke-miterlimit:10;stroke-dasharray:12.4,12.4;}
	.st11{fill:none;stroke:#000000;stroke-width:2;stroke-miterlimit:10;stroke-dasharray:11.1429,11.1429;}
</style>
<line class="st0" x1="240" y1="210" x2="240" y2="260"/>
<line class="st0" x1="40" y1="260" x2="40" y2="310"/>
<line class="st0" x1="40" y1="260" x2="127" y2="260"/>
<line class="st0" x1="153" y1="260" x2="240" y2="260"/>
<g>
	<ellipse class="st1" cx="140" cy="260" rx="12" ry="12"/>
	<g class="st2">
		<path d="M141.5,255.5h3v0.4l-1,0.2l-3,8.5h-1.1l-3-8.5l-0.8-0.1v-0.4h4.2v0.4l-1.3,0.1l2.1,6.5l2.1-6.5l-1.3-0.2V255.5z"/>
	</g>
</g>
<line class="st0" x1="40" y1="210" x2="40" y2="222"/>
<line class="st0" x1="40" y1="248" x2="40" y2="260"/>
<g>
	<ellipse class="st1" cx="40.3" cy="234.7" rx="12" ry="12"/>
	<g class="st2">
		<path d="M40.6,238.8l1.2-0.1l-0.7-2.3h-2.8l-0.7,2.3l1.1,0.2v0.4h-2.7v-0.4l1-0.2l2.8-8.4h1.2l2.9,8.5l0.8,0.1v0.4h-4.1V238.8z
			 M38.3,235.9h2.6l-1.3-4.1L38.3,235.9z"/>
	</g>
</g>
<line class="st0" x1="100" y1="310" x2="156" y2="310"/>
<line class="st0" x1="184" y1="310" x2="240" y2="310"/>
<ellipse class="st1" cx="159" cy="310" rx="3" ry="3"/>
<ellipse class="st1" cx="181" cy="310" rx="3" ry="3"/>
<line class="st0" x1="162" y1="308" x2="179" y2="302"/>
<line class="st0" x1="240" y1="260" x2="240" y2="310"/>
<line class="st0" x1="70" y1="310" x2="82" y2="310"/>
<line class="st0" x1="82" y1="300" x2="82" y2="320"/>
<line class="st3" x1="88" y1="305" x2="88" y2="315"/>
<line class="st0" x1="88" y1="310" x2="100" y2="310"/>
<line class="st0" x1="40" y1="310" x2="70" y2="310"/>
<line class="st0" x1="240" y1="60" x2="240" y2="110"/>
<line class="st0" x1="40" y1="110" x2="40" y2="160"/>
<line class="st0" x1="40" y1="60" x2="130" y2="60"/>
<line class="st0" x1="40" y1="110" x2="127" y2="110"/>
<line class="st0" x1="153" y1="110" x2="240" y2="110"/>
<g>
	<ellipse class="st1" cx="140" cy="110" rx="12" ry="12"/>
	<g class="st2">
		<path d="M141.5,105.5h3v0.4l-1,0.2l-3,8.5h-1.1l-3-8.5l-0.8-0.1v-0.4h4.2v0.4l-1.3,0.1l2.1,6.5l2.1-6.5l-1.3-0.2V105.5z"/>
	</g>
</g>
<line class="st0" x1="40" y1="60" x2="40" y2="79"/>
<line class="st0" x1="40" y1="103" x2="40" y2="110"/>
<g>
	<ellipse class="st1" cx="40" cy="91" rx="12" ry="12"/>
	<g class="st2">
		<path d="M40.3,95.1l1.2-0.1l-0.7-2.3h-2.8l-0.7,2.3l1.1,0.2v0.4h-2.7v-0.4l1-0.2l2.8-8.4h1.2l2.9,8.5l0.8,0.1v0.4h-4.1V95.1z
			 M38.1,92.2h2.6l-1.3-4.1L38.1,92.2z"/>
	</g>
</g>
<line class="st0" x1="100" y1="160" x2="156" y2="160"/>
<line class="st0" x1="184" y1="160" x2="240" y2="160"/>
<ellipse class="st1" cx="159" cy="160" rx="3" ry="3"/>
<ellipse class="st1" cx="181" cy="160" rx="3" ry="3"/>
<line class="st0" x1="162" y1="158" x2="179" y2="152"/>
<line class="st0" x1="240" y1="30" x2="240" y2="60"/>
<line class="st0" x1="190" y1="30" x2="240" y2="30"/>
<line class="st0" x1="130" y1="60" x2="170" y2="60"/>
<line class="st0" x1="210" y1="60" x2="240" y2="60"/>
<rect x="170" y="52" class="st1" width="40" height="16"/>
<g class="st2">
	<path d="M167.2,35.8h4c1.9,0,3,0.8,3,2.1c0,0.9-0.6,1.7-2.3,2c1.4,0.2,1.8,0.8,2,1.9l0.3,1.8l1,0.1V44c-0.5,0.1-0.8,0.2-1.3,0.2
		c-1,0-1.6-0.3-1.7-1.2l-0.3-1.5c-0.2-0.9-0.4-1.3-1.3-1.3H170c0,1.2,0,2.3,0,3.4l1,0.1V44h-3.9v-0.4l1-0.1c0-1.1,0-2.2,0-3.4v-0.5
		c0-1.1,0-2.3,0-3.4l-1-0.1V35.8z M170,39.7h0.6c1.2,0,1.7-0.8,1.7-1.8c0-1.1-0.6-1.7-1.7-1.7H170C170,37.3,170,38.5,170,39.7z"/>
	<path d="M179.4,36l0.2,0.1l0,1.8v3.5c0,0.7,0,1.4,0,2.1l1.5,0.2V44h-4.9v-0.3l1.6-0.2l0-2.1V37l-1.3,0.1v-0.4L179.4,36z"/>
</g>
<path class="st4" d="M184,44l6,6l6-6 M190,49V31"/>
<line class="st0" x1="240" y1="110" x2="240" y2="160"/>
<line class="st0" x1="70" y1="160" x2="82" y2="160"/>
<line class="st0" x1="82" y1="150" x2="82" y2="170"/>
<line class="st3" x1="88" y1="155" x2="88" y2="165"/>
<line class="st0" x1="88" y1="160" x2="100" y2="160"/>
<line class="st0" x1="40" y1="160" x2="70" y2="160"/>
<ellipse class="st5" cx="240" cy="260" rx="2" ry="2"/>
<ellipse class="st5" cx="40" cy="260" rx="2" ry="2"/>
<ellipse class="st5" cx="240" cy="60" rx="2" ry="2"/>
<ellipse class="st5" cx="240" cy="110" rx="2" ry="2"/>
<ellipse class="st5" cx="40" cy="110" rx="2" ry="2"/>
<g>
	<g>
		<path class="st6" d="M261,172c0,2,0,4,0,6c-2,0-4,0-6,0"/>
		<path class="st7" d="M242.8,178c-70.9,0-141.8,0-212.8,0"/>
		<path class="st6" d="M24,178c-2,0-4,0-6,0c0-2,0-4,0-6"/>
		<path class="st8" d="M18,161.3c0-26.7,0-53.3,0-80"/>
		<path class="st6" d="M18,76c0-2,0-4,0-6c2,0,4,0,6,0"/>
		<path class="st9" d="M35,70c5.5,0,11,0,16.5,0"/>
		<path class="st6" d="M57,70c2,0,4,0,6,0c0,2,0,4,0,6"/>
		<path class="st6" d="M63,82c0,2,0,4,0,6c2,0,4,0,6,0"/>
		<path class="st10" d="M81.4,88c55.8,0,111.6,0,167.4,0"/>
		<path class="st6" d="M255,88c2,0,4,0,6,0c0,2,0,4,0,6"/>
		<path class="st11" d="M261,105.1c0,20.4,0,40.9,0,61.3"/>
	</g>
</g>
</svg>
