<svg xmlns="http://www.w3.org/2000/svg" width="260" height="200" version="1.1"><text x="160" y="140" dominant-baseline="middle" transform="rotate(0, 160, 140)" style="font-family:Arial;font-size:11px;text-anchor:start">S</text><line x1="100" x2="156" y1="160" y2="160" style="stroke:#000;stroke-linecap:square;stroke-width:2"/><line x1="184" x2="240" y1="160" y2="160" style="stroke:#000;stroke-linecap:square;stroke-width:2"/><ellipse cx="159" cy="160" rx="3" ry="3" style="fill-opacity:0;fill:#000;stroke:#000;stroke-width:2"/><ellipse cx="181" cy="160" rx="3" ry="3" style="fill-opacity:0;fill:#000;stroke:#000;stroke-width:2"/><line x1="162" x2="179" y1="158" y2="152" style="stroke:#000;stroke-linecap:square;stroke-width:2"/><line x1="190" x2="190" y1="60" y2="80" style="stroke:#000;stroke-linecap:square;stroke-width:2"/><line x1="140" x2="190" y1="80" y2="80" style="stroke:#000;stroke-linecap:square;stroke-width:2"/><line x1="40" x2="40" y1="60" y2="110" style="stroke:#000;stroke-linecap:square;stroke-width:2"/><line x1="40" x2="40" y1="110" y2="160" style="stroke:#000;stroke-linecap:square;stroke-width:2"/><line x1="40" x2="120" y1="110" y2="110" style="stroke:#000;stroke-linecap:square;stroke-width:2"/><line x1="160" x2="240" y1="110" y2="110" style="stroke:#000;stroke-linecap:square;stroke-width:2"/><rect width="40" height="16" x="120" y="102" style="fill-opacity:0;fill:#000;stroke:#000;stroke-width:2"/><text x="140" y="124" dominant-baseline="hanging" transform="rotate(0, 140, 124)" style="font-family:Arial;font-size:11px;text-anchor:middle">R1</text><path d="M 120,110 M 134,94 L 140,100 L 146,94 M 140,99 L 140,81" style="fill-opacity:0;fill:#000;stroke:#000;stroke-linecap:square;stroke-width:2"/><line x1="140" x2="190" y1="60" y2="60" style="stroke:#000;stroke-linecap:square;stroke-width:2"/><line x1="100" x2="107" y1="60" y2="60" style="stroke:#000;stroke-linecap:square;stroke-width:2"/><line x1="133" x2="140" y1="60" y2="60" style="stroke:#000;stroke-linecap:square;stroke-width:2"/><ellipse cx="120" cy="60" rx="12" ry="12" style="fill-opacity:0;fill:#000;stroke:#000;stroke-width:2"/><text x="120" y="60" dominant-baseline="middle" transform="rotate(0, 120, 60)" style="font-family:Arial;font-size:12px;text-anchor:middle">V</text><line x1="40" x2="50" y1="60" y2="60" style="stroke:#000;stroke-linecap:square;stroke-width:2"/><line x1="90" x2="100" y1="60" y2="60" style="stroke:#000;stroke-linecap:square;stroke-width:2"/><rect width="40" height="16" x="50" y="52" style="fill-opacity:0;fill:#000;stroke:#000;stroke-width:2"/><text x="70" y="46" dominant-baseline="baseline" transform="rotate(0, 70, 46)" style="font-family:Arial;font-size:11px;text-anchor:middle">R2</text><line x1="240" x2="240" y1="110" y2="160" style="stroke:#000;stroke-linecap:square;stroke-width:2"/><line x1="70" x2="82" y1="160" y2="160" style="stroke:#000;stroke-linecap:square;stroke-width:2"/><line x1="82" x2="82" y1="150" y2="170" style="stroke:#000;stroke-linecap:square;stroke-width:2"/><line x1="88" x2="88" y1="155" y2="165" style="stroke:#000;stroke-linecap:square;stroke-width:3"/><line x1="88" x2="100" y1="160" y2="160" style="stroke:#000;stroke-linecap:square;stroke-width:2"/><line x1="40" x2="70" y1="160" y2="160" style="stroke:#000;stroke-linecap:square;stroke-width:2"/><ellipse cx="40" cy="110" rx="2" ry="2" style="fill-opacity:1;fill:#000;stroke:#000;stroke-width:2"/></svg>