<svg xmlns="http://www.w3.org/2000/svg" width="260" height="200" version="1.1"><text x="120" y="40" dominant-baseline="middle" transform="rotate(0, 120, 40)" style="font-family:Arial;font-size:11px;text-anchor:start">S1</text><text x="140" y="140" dominant-baseline="middle" transform="rotate(0, 140, 140)" style="font-family:Arial;font-size:11px;text-anchor:start">S2</text><line x1="100" x2="136" y1="160" y2="160" style="stroke:#000;stroke-linecap:square;stroke-width:2"/><line x1="164" x2="200" y1="160" y2="160" style="stroke:#000;stroke-linecap:square;stroke-width:2"/><ellipse cx="139" cy="160" rx="3" ry="3" style="fill-opacity:0;fill:#000;stroke:#000;stroke-width:2"/><ellipse cx="161" cy="160" rx="3" ry="3" style="fill-opacity:0;fill:#000;stroke:#000;stroke-width:2"/><line x1="142" x2="159" y1="158" y2="152" style="stroke:#000;stroke-linecap:square;stroke-width:2"/><line x1="150" x2="170" y1="90" y2="90" style="stroke:#000;stroke-linecap:square;stroke-width:2"/><line x1="170" x2="170" y1="60" y2="90" style="stroke:#000;stroke-linecap:square;stroke-width:2"/><line x1="170" x2="230" y1="60" y2="60" style="stroke:#000;stroke-linecap:square;stroke-width:2"/><line x1="150" x2="150" y1="60" y2="110" style="stroke:#000;stroke-linecap:square;stroke-width:2"/><line x1="100" x2="111" y1="60" y2="60" style="stroke:#000;stroke-linecap:square;stroke-width:2"/><line x1="139" x2="150" y1="60" y2="60" style="stroke:#000;stroke-linecap:square;stroke-width:2"/><ellipse cx="114" cy="60" rx="3" ry="3" style="fill-opacity:0;fill:#000;stroke:#000;stroke-width:2"/><ellipse cx="136" cy="60" rx="3" ry="3" style="fill-opacity:0;fill:#000;stroke:#000;stroke-width:2"/><line x1="117" x2="134" y1="58" y2="52" style="stroke:#000;stroke-linecap:square;stroke-width:2"/><line x1="40" x2="82" y1="110" y2="110" style="stroke:#000;stroke-linecap:square;stroke-width:2"/><line x1="108" x2="150" y1="110" y2="110" style="stroke:#000;stroke-linecap:square;stroke-width:2"/><ellipse cx="95" cy="110" rx="12" ry="12" style="fill-opacity:0;fill:#000;stroke:#000;stroke-width:2"/><text x="95" y="110" dominant-baseline="middle" transform="rotate(0, 95, 110)" style="font-family:Arial;font-size:12px;text-anchor:middle">A</text><line x1="40" x2="50" y1="60" y2="60" style="stroke:#000;stroke-linecap:square;stroke-width:2"/><line x1="90" x2="100" y1="60" y2="60" style="stroke:#000;stroke-linecap:square;stroke-width:2"/><rect width="40" height="16" x="50" y="52" style="fill-opacity:0;fill:#000;stroke:#000;stroke-width:2"/><text x="70" y="36" dominant-baseline="baseline" transform="rotate(0, 70, 36)" style="font-family:Arial;font-size:11px;text-anchor:middle">R2</text><path d="M 50,60 M 53,77 L 85,42 M 79,42 L 85,42 L 85,48" style="fill-opacity:0;fill:#000;stroke:#000;stroke-linecap:square;stroke-width:2"/><line x1="230" x2="230" y1="60" y2="110" style="stroke:#000;stroke-linecap:square;stroke-width:2"/><line x1="40" x2="40" y1="60" y2="110" style="stroke:#000;stroke-linecap:square;stroke-width:2"/><line x1="40" x2="40" y1="110" y2="160" style="stroke:#000;stroke-linecap:square;stroke-width:2"/><line x1="200" x2="200" y1="60" y2="90" style="stroke:#000;stroke-linecap:square;stroke-width:2"/><line x1="200" x2="200" y1="130" y2="160" style="stroke:#000;stroke-linecap:square;stroke-width:2"/><rect width="16" height="40" x="192" y="90" style="fill-opacity:0;fill:#000;stroke:#000;stroke-width:2"/><text x="186" y="110" dominant-baseline="middle" transform="rotate(0, 186, 110)" style="font-family:Arial;font-size:11px;text-anchor:end">R1</text><path d="M 200,90 M 216,104 L 210,110 L 216,116 M 211,110 L 229,110" style="fill-opacity:0;fill:#000;stroke:#000;stroke-linecap:square;stroke-width:2"/><line x1="70" x2="82" y1="160" y2="160" style="stroke:#000;stroke-linecap:square;stroke-width:2"/><line x1="82" x2="82" y1="150" y2="170" style="stroke:#000;stroke-linecap:square;stroke-width:2"/><line x1="88" x2="88" y1="155" y2="165" style="stroke:#000;stroke-linecap:square;stroke-width:3"/><line x1="88" x2="100" y1="160" y2="160" style="stroke:#000;stroke-linecap:square;stroke-width:2"/><line x1="40" x2="70" y1="160" y2="160" style="stroke:#000;stroke-linecap:square;stroke-width:2"/><ellipse cx="150" cy="90" rx="2" ry="2" style="fill-opacity:1;fill:#000;stroke:#000;stroke-width:2"/><ellipse cx="200" cy="60" rx="2" ry="2" style="fill-opacity:1;fill:#000;stroke:#000;stroke-width:2"/><ellipse cx="40" cy="110" rx="2" ry="2" style="fill-opacity:1;fill:#000;stroke:#000;stroke-width:2"/></svg>