<svg xmlns="http://www.w3.org/2000/svg" width="280" height="260" version="1.1"><line x1="40" x2="102" y1="50" y2="50" style="stroke:#000;stroke-linecap:square;stroke-width:2"/><line x1="128" x2="190" y1="50" y2="50" style="stroke:#000;stroke-linecap:square;stroke-width:2"/><ellipse cx="115" cy="50" rx="12" ry="12" style="fill-opacity:0;fill:#000;stroke:#000;stroke-width:2"/><text x="115" y="50" dominant-baseline="middle" transform="rotate(0, 115, 50)" style="font-family:Arial;font-size:12px;text-anchor:middle">V</text><line x1="190" x2="190" y1="50" y2="100" style="stroke:#000;stroke-linecap:square;stroke-width:2"/><line x1="40" x2="40" y1="50" y2="100" style="stroke:#000;stroke-linecap:square;stroke-width:2"/><line x1="190" x2="240" y1="100" y2="100" style="stroke:#000;stroke-linecap:square;stroke-width:2"/><line x1="140" x2="152" y1="100" y2="100" style="stroke:#000;stroke-linecap:square;stroke-width:2"/><line x1="178" x2="190" y1="100" y2="100" style="stroke:#000;stroke-linecap:square;stroke-width:2"/><ellipse cx="165" cy="100" rx="12" ry="12" style="fill-opacity:0;fill:#000;stroke:#000;stroke-width:2"/><text x="165" y="100" dominant-baseline="middle" transform="rotate(0, 165, 100)" style="font-family:Arial;font-size:12px;text-anchor:middle">A</text><line x1="190" x2="240" y1="170" y2="170" style="stroke:#000;stroke-linecap:square;stroke-width:2"/><line x1="140" x2="170" y1="200" y2="200" style="stroke:#000;stroke-linecap:square;stroke-width:2"/><line x1="210" x2="240" y1="200" y2="200" style="stroke:#000;stroke-linecap:square;stroke-width:2"/><rect width="40" height="16" x="170" y="192" style="fill-opacity:0;fill:#000;stroke:#000;stroke-width:2"/><text x="190" y="214" dominant-baseline="hanging" transform="rotate(0, 190, 214)" style="font-family:Arial;font-size:11px;text-anchor:middle">R0</text><path d="M 170,200 M 184,184 L 190,190 L 196,184 M 190,189 L 190,171" style="fill-opacity:0;fill:#000;stroke:#000;stroke-linecap:square;stroke-width:2"/><line x1="40" x2="70" y1="100" y2="100" style="stroke:#000;stroke-linecap:square;stroke-width:2"/><line x1="110" x2="140" y1="100" y2="100" style="stroke:#000;stroke-linecap:square;stroke-width:2"/><rect width="40" height="16" x="70" y="92" style="fill-opacity:0;fill:#000;stroke:#000;stroke-width:2"/><text x="90" y="86" dominant-baseline="baseline" transform="rotate(0, 90, 86)" style="font-family:Arial;font-size:11px;text-anchor:middle">Rx</text><line x1="240" x2="240" y1="100" y2="200" style="stroke:#000;stroke-linecap:square;stroke-width:2"/><line x1="100" x2="140" y1="200" y2="200" style="stroke:#000;stroke-linecap:square;stroke-width:2"/><line x1="70" x2="82" y1="200" y2="200" style="stroke:#000;stroke-linecap:square;stroke-width:2"/><line x1="82" x2="82" y1="190" y2="210" style="stroke:#000;stroke-linecap:square;stroke-width:2"/><line x1="88" x2="88" y1="195" y2="205" style="stroke:#000;stroke-linecap:square;stroke-width:3"/><line x1="88" x2="100" y1="200" y2="200" style="stroke:#000;stroke-linecap:square;stroke-width:2"/><line x1="40" x2="70" y1="200" y2="200" style="stroke:#000;stroke-linecap:square;stroke-width:2"/><line x1="40" x2="40" y1="100" y2="200" style="stroke:#000;stroke-linecap:square;stroke-width:2"/><ellipse cx="190" cy="100" rx="2" ry="2" style="fill-opacity:1;fill:#000;stroke:#000;stroke-width:2"/><ellipse cx="40" cy="100" rx="2" ry="2" style="fill-opacity:1;fill:#000;stroke:#000;stroke-width:2"/><ellipse cx="240" cy="170" rx="2" ry="2" style="fill-opacity:1;fill:#000;stroke:#000;stroke-width:2"/></svg>