<svg xmlns="http://www.w3.org/2000/svg" width="260" height="240" version="1.1"><line x1="190" x2="190" y1="100" y2="120" style="stroke:#000;stroke-linecap:square;stroke-width:2"/><line x1="140" x2="190" y1="120" y2="120" style="stroke:#000;stroke-linecap:square;stroke-width:2"/><line x1="40" x2="40" y1="100" y2="150" style="stroke:#000;stroke-linecap:square;stroke-width:2"/><line x1="40" x2="40" y1="150" y2="200" style="stroke:#000;stroke-linecap:square;stroke-width:2"/><line x1="40" x2="120" y1="150" y2="150" style="stroke:#000;stroke-linecap:square;stroke-width:2"/><line x1="160" x2="240" y1="150" y2="150" style="stroke:#000;stroke-linecap:square;stroke-width:2"/><rect width="40" height="16" x="120" y="142" style="fill-opacity:0;fill:#000;stroke:#000;stroke-width:2"/><text x="140" y="164" dominant-baseline="hanging" transform="rotate(0, 140, 164)" style="font-family:Arial;font-size:11px;text-anchor:middle">R0</text><path d="M 120,150 M 134,134 L 140,140 L 146,134 M 140,139 L 140,121" style="fill-opacity:0;fill:#000;stroke:#000;stroke-linecap:square;stroke-width:2"/><line x1="40" x2="77" y1="50" y2="50" style="stroke:#000;stroke-linecap:square;stroke-width:2"/><line x1="103" x2="140" y1="50" y2="50" style="stroke:#000;stroke-linecap:square;stroke-width:2"/><ellipse cx="90" cy="50" rx="12" ry="12" style="fill-opacity:0;fill:#000;stroke:#000;stroke-width:2"/><text x="90" y="50" dominant-baseline="middle" transform="rotate(0, 90, 50)" style="font-family:Arial;font-size:12px;text-anchor:middle">V</text><line x1="140" x2="140" y1="50" y2="100" style="stroke:#000;stroke-linecap:square;stroke-width:2"/><line x1="40" x2="40" y1="50" y2="100" style="stroke:#000;stroke-linecap:square;stroke-width:2"/><line x1="140" x2="190" y1="100" y2="100" style="stroke:#000;stroke-linecap:square;stroke-width:2"/><line x1="100" x2="107" y1="100" y2="100" style="stroke:#000;stroke-linecap:square;stroke-width:2"/><line x1="133" x2="140" y1="100" y2="100" style="stroke:#000;stroke-linecap:square;stroke-width:2"/><ellipse cx="120" cy="100" rx="12" ry="12" style="fill-opacity:0;fill:#000;stroke:#000;stroke-width:2"/><text x="120" y="100" dominant-baseline="middle" transform="rotate(0, 120, 100)" style="font-family:Arial;font-size:12px;text-anchor:middle">A</text><line x1="40" x2="50" y1="100" y2="100" style="stroke:#000;stroke-linecap:square;stroke-width:2"/><line x1="90" x2="100" y1="100" y2="100" style="stroke:#000;stroke-linecap:square;stroke-width:2"/><rect width="40" height="16" x="50" y="92" style="fill-opacity:0;fill:#000;stroke:#000;stroke-width:2"/><text x="70" y="86" dominant-baseline="baseline" transform="rotate(0, 70, 86)" style="font-family:Arial;font-size:11px;text-anchor:middle">Rx</text><line x1="240" x2="240" y1="150" y2="200" style="stroke:#000;stroke-linecap:square;stroke-width:2"/><line x1="100" x2="240" y1="200" y2="200" style="stroke:#000;stroke-linecap:square;stroke-width:2"/><line x1="70" x2="82" y1="200" y2="200" style="stroke:#000;stroke-linecap:square;stroke-width:2"/><line x1="82" x2="82" y1="190" y2="210" style="stroke:#000;stroke-linecap:square;stroke-width:2"/><line x1="88" x2="88" y1="195" y2="205" style="stroke:#000;stroke-linecap:square;stroke-width:3"/><line x1="88" x2="100" y1="200" y2="200" style="stroke:#000;stroke-linecap:square;stroke-width:2"/><line x1="40" x2="70" y1="200" y2="200" style="stroke:#000;stroke-linecap:square;stroke-width:2"/><ellipse cx="40" cy="100" rx="2" ry="2" style="fill-opacity:1;fill:#000;stroke:#000;stroke-width:2"/><ellipse cx="40" cy="150" rx="2" ry="2" style="fill-opacity:1;fill:#000;stroke:#000;stroke-width:2"/><ellipse cx="140" cy="100" rx="2" ry="2" style="fill-opacity:1;fill:#000;stroke:#000;stroke-width:2"/></svg>