<?xml version="1.0" encoding="utf-8"?>
<!-- Generator: Adobe Illustrator 25.3.0, SVG Export Plug-In . SVG Version: 6.00 Build 0)  -->
<svg version="1.1"
	 id="svg2" inkscape:version="0.48.4 r9939" sodipodi:docname="Vernier_caliper.svg" sodipodi:version="0.32" xmlns:cc="http://creativecommons.org/ns#" xmlns:dc="http://purl.org/dc/elements/1.1/" xmlns:inkscape="http://www.inkscape.org/namespaces/inkscape" xmlns:rdf="http://www.w3.org/1999/02/22-rdf-syntax-ns#" xmlns:sodipodi="http://sodipodi.sourceforge.net/DTD/sodipodi-0.dtd" xmlns:svg="http://www.w3.org/2000/svg"
	 xmlns="http://www.w3.org/2000/svg" xmlns:xlink="http://www.w3.org/1999/xlink" x="0px" y="0px" viewBox="0 0 3040 1080"
	 style="enable-background:new 0 0 3040 1080;" xml:space="preserve">
<style type="text/css">
	.st0{fill:none;stroke:#000000;stroke-width:5;stroke-miterlimit:10;}
	.st1{fill-rule:evenodd;clip-rule:evenodd;fill:#999999;stroke:#000000;stroke-width:3;}
	.st2{fill-rule:evenodd;clip-rule:evenodd;fill:#CCCCCC;stroke:#000000;stroke-width:3;stroke-linejoin:round;}
	.st3{fill-rule:evenodd;clip-rule:evenodd;fill:#E5E5E5;stroke:#000000;stroke-width:3;}
	.st4{fill-rule:evenodd;clip-rule:evenodd;fill:#E5E5E5;stroke:#000000;stroke-width:3;stroke-linejoin:round;}
	.st5{fill:none;stroke:#000000;stroke-width:3;stroke-linejoin:round;}
	.st6{fill-rule:evenodd;clip-rule:evenodd;fill:#CCCCCC;stroke:#000000;stroke-width:3;}
	.st7{fill-rule:evenodd;clip-rule:evenodd;fill:#B2B2B2;stroke:#000000;stroke-width:3;stroke-linejoin:round;}
	.st8{fill:none;stroke:#000000;stroke-width:2;stroke-linecap:round;}
	.st9{fill:none;stroke:#000000;stroke-width:1.5;stroke-linecap:round;}
	.st10{font-family:'ArialMT';}
	.st11{font-size:36px;}
	.st12{font-size:40px;}
	.st13{font-size:24px;}
	.st14{fill:#808080;}
	.st15{font-size:32px;}
	.st16{fill:#E5E5E5;stroke:#000000;stroke-width:3;stroke-linecap:round;stroke-linejoin:round;}
	.st17{fill:none;stroke:#000000;stroke-linecap:round;}
	.st18{font-size:20px;}
	.st19{fill:#E5E5E5;stroke:#000000;stroke-width:3;stroke-linejoin:round;}
	.st20{fill:#CDCDCD;stroke:#000000;stroke-width:3;stroke-linejoin:round;}
	.st21{font-size:22px;}
	.st22{fill:none;}
	.st23{fill-rule:evenodd;clip-rule:evenodd;stroke:#000000;stroke-width:1.6;stroke-miterlimit:6.4;}
	.st24{fill-rule:evenodd;clip-rule:evenodd;stroke:#000000;}
	.st25{fill:#FFFFFF;stroke:#000000;stroke-width:2;stroke-linecap:round;stroke-linejoin:round;}
	.st26{font-family:'Arial-BoldMT';}
	.st27{font-size:56px;}
	.st28{font-size:26px;}
	.st29{fill:#FFFFFF;stroke:#000000;stroke-width:2;stroke-linecap:round;stroke-linejoin:round;stroke-miterlimit:3.9135;}
	.st30{fill:#1D1D1B;}
	.st31{fill:#373736;}
</style>
<line class="st0" x1="278.9" y1="97.7" x2="522.9" y2="98.2"/>
<line class="st0" x1="219.1" y1="789.2" x2="591.8" y2="789.2"/>
<sodipodi:namedview  bordercolor="#666666" borderopacity="1.0" gridtolerance="10.0" guidetolerance="10.0" id="base" inkscape:current-layer="svg2" inkscape:cx="853.99706" inkscape:cy="941.31291" inkscape:pageopacity="0.0" inkscape:pageshadow="2" inkscape:window-height="838" inkscape:window-maximized="1" inkscape:window-width="1600" inkscape:window-x="-8" inkscape:window-y="-8" inkscape:zoom="0.38475743" objecttolerance="10.0" pagecolor="#ffffff" showgrid="false">
	</sodipodi:namedview>
<path id="path2821" class="st1" d="M2699.1,387.3h247.2v18.8h65.5v24.7h-313.5L2699.1,387.3z"/>
<path id="path1873" class="st2" d="M244.7,244.2c0,0-196.5,0-206.2,0s-10.2,4.9-10.2,10.2s0,316.7,0,316.7s96.2,359,108.8,406.2
	c12.7,47.2,48.9,79.9,107.2,79.9c0-63.8,0-547.6,0-547.6h2454.9V310.8h-2318v7.4h-44.7c0,0,0-26.5,0-105.5
	c0-125.1-91-190-91.3-190.3C245.3,28.5,244.7,230.7,244.7,244.2z"/>
<path id="path2760" class="st3" d="M208.3,920.6c-8.7,0-9.6,3.2-9.6,9.6c0,5.8,0,99,0,119c13.3,5.2,28.5,8,45.6,8
	c0-15.9,0-82.4,0-136.6C232.9,920.6,214.9,920.6,208.3,920.6z"/>
<path id="path2765" class="st4" d="M245.3,22.5c0,5.5-0.4,158.6-0.5,200.1h33.5V54.3C260.4,33.3,245.4,22.6,245.3,22.5z"/>
<path id="path2770" class="st2" d="M558.3,23.1v189.5h-11.8v36.7h135.3V311H496.6c0,0-16.8-33.2-16.8-90.6S496.9,79.1,558.3,23.1z"
	/>
<path id="path2786" class="st5" d="M587.6,581.9l0,34L558,616v441.5c0,0,88.8,5.4,118.9-107.2c30.2-112.6,70.2-262,76.9-287.1
	s22.9-35.3,61.1-35.3s394.3,0,394.3,0v-46.1H587.6z"/>
<path id="path3177" class="st6" d="M587.6,581.9l0,34L558,616v441.5c0,0,88.8,5.4,118.9-107.2c30.2-112.6,70.2-262,76.9-287.1
	s22.9-35.3,61.1-35.3s394.3,0,394.3,0v-46.1H587.6z"/>
<path id="path2816" class="st3" d="M557.9,921.1v136.4c0,0,21.5,1.3,47-10.8c0-29.2,0-109.9,0-115.7c0-6.9-3.6-9.8-9.8-9.8
	C589.5,921.1,564.8,921.1,557.9,921.1z"/>
<path id="path2772" class="st7" d="M682.1,249.7h526.3v96.9H682.2L682.1,249.7z"/>
<path id="text2827" d="M98.3,451.2v-17.5h1.9v17.5H98.3 M103.5,451.2v-17.5h1.9l7.5,13.7v-13.7h1.8v17.5h-1.9l-7.5-13.7v13.7H103.5
	 M117.4,442.6c0-2.9,0.6-5.2,1.9-6.8c1.3-1.6,2.9-2.5,4.9-2.5c1.3,0,2.5,0.4,3.6,1.2c1.1,0.8,1.9,1.8,2.4,3.2
	c0.6,1.4,0.8,2.9,0.8,4.7c0,1.8-0.3,3.4-0.9,4.8c-0.6,1.4-1.4,2.5-2.5,3.2c-1.1,0.7-2.2,1.1-3.5,1.1c-1.3,0-2.6-0.4-3.6-1.2
	c-1.1-0.8-1.9-1.9-2.4-3.3C117.7,445.6,117.4,444.2,117.4,442.6 M119.4,442.7c0,2.1,0.5,3.8,1.4,5c0.9,1.2,2.1,1.8,3.5,1.8
	c1.4,0,2.6-0.6,3.5-1.8c0.9-1.2,1.4-3,1.4-5.2c0-1.4-0.2-2.7-0.6-3.7c-0.4-1.1-1-1.9-1.7-2.5c-0.8-0.6-1.6-0.9-2.5-0.9
	c-1.3,0-2.5,0.6-3.5,1.7C119.9,438.2,119.4,440,119.4,442.7 M132.1,451.2l5.5-9.1l-4.9-8.4h2.3l2.6,4.5c0.5,0.9,0.9,1.6,1.2,2.1
	c0.3-0.6,0.7-1.3,1.1-2l2.9-4.6h2.1l-5,8.2l5.4,9.2h-2.3l-3.6-6.2c-0.2-0.4-0.4-0.7-0.6-1.2c-0.3,0.6-0.5,1.1-0.7,1.3l-3.6,6.1
	H132.1 M155.8,451.2v-15.4h-4.7v-2.1h11.3v2.1h-4.7v15.4H155.8 M164.4,451.2v-17.5h10.4v2.1h-8.5v5.4h7.9v2.1h-7.9v6h8.8v2.1H164.4
	 M177.7,451.2v-17.5h2.9l3.4,12.4c0.3,1.2,0.5,2,0.7,2.6c0.2-0.6,0.4-1.6,0.8-2.8l3.4-12.2h2.5v17.5h-1.8v-14.6l-4.2,14.6h-1.7
	l-4.1-14.9v14.9H177.7 M194.4,451.2v-17.5h5.4c1,0,1.7,0.1,2.2,0.2c0.7,0.1,1.3,0.4,1.8,0.8c0.5,0.4,0.9,1,1.1,1.7
	c0.3,0.7,0.4,1.5,0.4,2.4c0,1.5-0.4,2.7-1.2,3.8c-0.8,1-2.2,1.5-4.2,1.5h-3.7v7.1H194.4 M196.3,442h3.7c1.2,0,2.1-0.3,2.6-0.8
	c0.5-0.6,0.8-1.3,0.8-2.4c0-0.7-0.2-1.4-0.5-1.9c-0.3-0.5-0.7-0.9-1.2-1c-0.3-0.1-0.9-0.2-1.8-0.2h-3.7V442 M139,476.2v2.1h-9.5
	c0-0.5,0.1-1,0.2-1.5c0.2-0.8,0.6-1.6,1.2-2.3c0.5-0.8,1.3-1.6,2.3-2.6c1.6-1.6,2.6-2.8,3.2-3.7c0.5-0.9,0.8-1.8,0.8-2.6
	c0-0.9-0.3-1.6-0.8-2.1c-0.5-0.6-1.1-0.9-1.9-0.9c-0.8,0-1.5,0.3-2,0.9c-0.5,0.6-0.8,1.5-0.8,2.6l-1.8-0.2c0.1-1.6,0.6-2.9,1.4-3.8
	c0.8-0.9,1.9-1.3,3.3-1.3c1.4,0,2.5,0.5,3.3,1.4c0.8,0.9,1.2,2.1,1.2,3.5c0,0.7-0.1,1.4-0.4,2.1c-0.2,0.7-0.6,1.4-1.2,2.1
	c-0.5,0.7-1.4,1.8-2.7,3.1c-1.1,1.1-1.7,1.8-2,2.2c-0.3,0.4-0.5,0.8-0.7,1.2H139 M140.9,469.7c0-2.1,0.2-3.7,0.5-5
	c0.4-1.3,0.9-2.2,1.6-2.9c0.7-0.7,1.6-1,2.6-1c0.8,0,1.4,0.2,2,0.6c0.6,0.4,1.1,0.9,1.4,1.6c0.4,0.7,0.7,1.6,0.9,2.6
	c0.2,1,0.3,2.4,0.3,4.1c0,2.1-0.2,3.7-0.5,5c-0.3,1.3-0.9,2.2-1.6,2.9c-0.7,0.7-1.5,1-2.6,1c-1.4,0-2.5-0.6-3.3-1.8
	C141.4,475.3,140.9,473,140.9,469.7 M142.7,469.7c0,2.9,0.3,4.8,0.8,5.7c0.6,0.9,1.2,1.4,2,1.4c0.8,0,1.5-0.5,2-1.4
	c0.6-1,0.8-2.9,0.8-5.7c0-2.9-0.3-4.8-0.8-5.7c-0.5-0.9-1.2-1.4-2.1-1.4c-0.8,0-1.5,0.4-1.9,1.3C143,464.8,142.7,466.8,142.7,469.7
	 M156.2,461.7c-0.5,0-1,0.2-1.3,0.7c-0.4,0.4-0.5,1-0.5,1.6c0,0.6,0.2,1.2,0.5,1.6c0.4,0.4,0.8,0.6,1.3,0.6c0.5,0,1-0.2,1.3-0.6
	c0.4-0.4,0.5-1,0.5-1.6c0-0.6-0.2-1.2-0.5-1.6C157.1,461.9,156.7,461.7,156.2,461.7 M156.2,460.2c0.4,0,0.8,0.1,1.2,0.3
	c0.4,0.2,0.7,0.5,1,0.8c0.3,0.4,0.5,0.8,0.7,1.2c0.1,0.5,0.2,0.9,0.2,1.5c0,1-0.3,1.9-0.9,2.7c-0.6,0.7-1.3,1.1-2.2,1.1
	c-0.9,0-1.6-0.4-2.2-1.1c-0.6-0.7-0.9-1.6-0.9-2.7c0-1.1,0.3-2,0.9-2.7C154.6,460.5,155.3,460.2,156.2,460.2 M172.6,462.1v2.5
	c-0.7-0.7-1.4-1.3-2.2-1.6c-0.8-0.4-1.6-0.5-2.5-0.5c-1.7,0-3,0.6-3.9,1.8c-0.9,1.2-1.4,3-1.4,5.3c0,2.3,0.5,4,1.4,5.2
	c0.9,1.2,2.2,1.8,3.9,1.8c0.9,0,1.7-0.2,2.5-0.5c0.8-0.4,1.5-0.9,2.2-1.6v2.4c-0.7,0.6-1.5,1-2.2,1.3c-0.8,0.3-1.6,0.4-2.5,0.4
	c-2.3,0-4-0.8-5.3-2.4c-1.3-1.6-1.9-3.8-1.9-6.6c0-2.8,0.6-5,1.9-6.6c1.3-1.6,3.1-2.4,5.3-2.4c0.9,0,1.7,0.1,2.5,0.4
	C171.1,461.2,171.9,461.6,172.6,462.1"/>
<path id="path2851" class="st8" d="M296.4,431.5v56"/>
<path id="path3179" class="st8" d="M423,431.5v56"/>
<path id="path3181" class="st8" d="M548.6,431.5v56"/>
<path id="path3183" class="st8" d="M674.5,431.5v56"/>
<path id="path3185" class="st8" d="M800.4,431.5v56"/>
<path id="path3187" class="st8" d="M926.3,431.5v56"/>
<path id="path3189" class="st8" d="M1052.2,431.5v56"/>
<path id="path3191" class="st8" d="M1177.8,431.5v56"/>
<path id="path3193" class="st8" d="M1303.7,431.5v56"/>
<path id="path3195" class="st8" d="M1429.9,431.5v56"/>
<path id="path3197" class="st8" d="M1681.7,431.5v56"/>
<path id="path3199" class="st8" d="M1556.1,431.5v56"/>
<path id="path3201" class="st8" d="M1807.3,431.5v56"/>
<path id="path3205" class="st8" d="M1933.8,431.5v56"/>
<path id="path3207" class="st8" d="M2059.4,431.5v56"/>
<path id="path3209" class="st8" d="M2185.6,431.5v56"/>
<path id="path3211" class="st8" d="M2311.5,431.5v56"/>
<path id="path3213" class="st8" d="M2437.4,431.5v56"/>
<path id="path3215" class="st8" d="M2563.3,431.5v56"/>
<path id="path3217" class="st9" d="M309.7,453.5v34"/>
<g id="use4899">
	<path id="path3217_1_" class="st9" d="M309.7,453.5v34"/>
</g>
<g id="use4901" transform="translate(12.59025,0)">
	<path id="path3217_2_" class="st9" d="M322.3,453.5v34"/>
</g>
<g id="use4903" transform="translate(25.1805,0)">
	<path id="path3217_3_" class="st9" d="M334.9,453.5v34"/>
</g>
<g id="use4905" transform="translate(37.77075,0)">
	<path id="path3217_4_" class="st9" d="M347.5,453.5v34"/>
</g>
<g id="use4907" transform="matrix(1,0,0,1.246273,50.361,-120.2456)">
	<path id="path3217_5_" class="st9" d="M360.1,445v42.4"/>
</g>
<g id="use4909" transform="translate(62.95125,0)">
	<path id="path3217_6_" class="st9" d="M372.7,453.5v34"/>
</g>
<g id="use4911" transform="translate(75.5415,0)">
	<path id="path3217_7_" class="st9" d="M385.3,453.5v34"/>
</g>
<g id="use4913" transform="translate(88.13175,0)">
	<path id="path3217_8_" class="st9" d="M397.8,453.5v34"/>
</g>
<g id="use4915" transform="translate(100.722,0)">
	<path id="path3217_9_" class="st9" d="M410.4,453.5v34"/>
</g>
<g id="use4919" transform="translate(125.9025,0)">
	<path id="path3217_10_" class="st9" d="M435.6,453.5v34"/>
</g>
<g id="use4921" transform="translate(138.4928,0)">
	<path id="path3217_11_" class="st9" d="M448.2,453.5v34"/>
</g>
<g id="use4923" transform="translate(151.083,0)">
	<path id="path3217_12_" class="st9" d="M460.8,453.5v34"/>
</g>
<g id="use4925" transform="translate(163.6732,0)">
	<path id="path3217_13_" class="st9" d="M473.4,453.5v34"/>
</g>
<g id="use4927" transform="matrix(1,0,0,1.246273,176.2635,-120.2456)">
	<path id="path3217_14_" class="st9" d="M486,445v42.4"/>
</g>
<g id="use4929" transform="translate(188.8537,0)">
	<path id="path3217_15_" class="st9" d="M498.6,453.5v34"/>
</g>
<g id="use4931" transform="translate(201.444,0)">
	<path id="path3217_16_" class="st9" d="M511.2,453.5v34"/>
</g>
<g id="use4933" transform="translate(214.0342,0)">
	<path id="path3217_17_" class="st9" d="M523.7,453.5v34"/>
</g>
<g id="use4935" transform="translate(226.6245,0)">
	<path id="path3217_18_" class="st9" d="M536.3,453.5v34"/>
</g>
<g id="use4939" transform="translate(251.805,0)">
	<path id="path3217_19_" class="st9" d="M561.5,453.5v34"/>
</g>
<g id="use4941" transform="translate(264.3952,0)">
	<path id="path3217_20_" class="st9" d="M574.1,453.5v34"/>
</g>
<g id="use4943" transform="translate(276.9855,0)">
	<path id="path3217_21_" class="st9" d="M586.7,453.5v34"/>
</g>
<g id="use4945" transform="translate(289.5757,0)">
	<path id="path3217_22_" class="st9" d="M599.3,453.5v34"/>
</g>
<g id="use4947" transform="matrix(1,0,0,1.246273,302.166,-120.2456)">
	<path id="path3217_23_" class="st9" d="M611.9,445v42.4"/>
</g>
<g id="use4949" transform="translate(314.7562,0)">
	<path id="path3217_24_" class="st9" d="M624.5,453.5v34"/>
</g>
<g id="use4951" transform="translate(327.3465,0)">
	<path id="path3217_25_" class="st9" d="M637.1,453.5v34"/>
</g>
<g id="use4953" transform="translate(339.9367,0)">
	<path id="path3217_26_" class="st9" d="M649.6,453.5v34"/>
</g>
<g id="use4955" transform="translate(352.527,0)">
	<path id="path3217_27_" class="st9" d="M662.2,453.5v34"/>
</g>
<g id="use4959" transform="translate(377.7075,0)">
	<path id="path3217_28_" class="st9" d="M687.4,453.5v34"/>
</g>
<g id="use4961" transform="translate(390.2977,0)">
	<path id="path3217_29_" class="st9" d="M700,453.5v34"/>
</g>
<g id="use4963" transform="translate(402.888,0)">
	<path id="path3217_30_" class="st9" d="M712.6,453.5v34"/>
</g>
<g id="use4965" transform="translate(415.4783,0)">
	<path id="path3217_31_" class="st9" d="M725.2,453.5v34"/>
</g>
<g id="use4967" transform="matrix(1,0,0,1.246273,428.0685,-120.2456)">
	<path id="path3217_32_" class="st9" d="M737.8,445v42.4"/>
</g>
<g id="use4969" transform="translate(440.6587,0)">
	<path id="path3217_33_" class="st9" d="M750.4,453.5v34"/>
</g>
<g id="use4971" transform="translate(453.249,0)">
	<path id="path3217_34_" class="st9" d="M763,453.5v34"/>
</g>
<g id="use4973" transform="translate(465.8392,0)">
	<path id="path3217_35_" class="st9" d="M775.6,453.5v34"/>
</g>
<g id="use4975" transform="translate(478.4295,0)">
	<path id="path3217_36_" class="st9" d="M788.1,453.5v34"/>
</g>
<g id="use4979" transform="translate(503.61,0)">
	<path id="path3217_37_" class="st9" d="M813.3,453.5v34"/>
</g>
<g id="use4981" transform="translate(516.2002,0)">
	<path id="path3217_38_" class="st9" d="M825.9,453.5v34"/>
</g>
<g id="use4983" transform="translate(528.7905,0)">
	<path id="path3217_39_" class="st9" d="M838.5,453.5v34"/>
</g>
<g id="use4985" transform="translate(541.3807,0)">
	<path id="path3217_40_" class="st9" d="M851.1,453.5v34"/>
</g>
<g id="use4987" transform="matrix(1,0,0,1.246273,553.971,-120.2456)">
	<path id="path3217_41_" class="st9" d="M863.7,445v42.4"/>
</g>
<g id="use4989" transform="translate(566.5612,0)">
	<path id="path3217_42_" class="st9" d="M876.3,453.5v34"/>
</g>
<g id="use4991" transform="translate(579.1515,0)">
	<path id="path3217_43_" class="st9" d="M888.9,453.5v34"/>
</g>
<g id="use4993" transform="translate(591.7417,0)">
	<path id="path3217_44_" class="st9" d="M901.5,453.5v34"/>
</g>
<g id="use4995" transform="translate(604.332,0)">
	<path id="path3217_45_" class="st9" d="M914,453.5v34"/>
</g>
<g id="use4999" transform="translate(629.5125,0)">
	<path id="path3217_46_" class="st9" d="M939.2,453.5v34"/>
</g>
<g id="use5001" transform="translate(642.1028,0)">
	<path id="path3217_47_" class="st9" d="M951.8,453.5v34"/>
</g>
<g id="use5003" transform="translate(654.693,0)">
	<path id="path3217_48_" class="st9" d="M964.4,453.5v34"/>
</g>
<g id="use5005" transform="translate(667.2832,0)">
	<path id="path3217_49_" class="st9" d="M977,453.5v34"/>
</g>
<g id="use5007" transform="matrix(1,0,0,1.246273,679.8735,-120.2456)">
	<path id="path3217_50_" class="st9" d="M989.6,445v42.4"/>
</g>
<g id="use5009" transform="translate(692.4638,0)">
	<path id="path3217_51_" class="st9" d="M1002.2,453.5v34"/>
</g>
<g id="use5011" transform="translate(705.054,0)">
	<path id="path3217_52_" class="st9" d="M1014.8,453.5v34"/>
</g>
<g id="use5013" transform="translate(717.6442,0)">
	<path id="path3217_53_" class="st9" d="M1027.4,453.5v34"/>
</g>
<g id="use5015" transform="translate(730.2345,0)">
	<path id="path3217_54_" class="st9" d="M1039.9,453.5v34"/>
</g>
<g id="use5019" transform="translate(755.415,0)">
	<path id="path3217_55_" class="st9" d="M1065.1,453.5v34"/>
</g>
<g id="use5021" transform="translate(768.0052,0)">
	<path id="path3217_56_" class="st9" d="M1077.7,453.5v34"/>
</g>
<g id="use5023" transform="translate(780.5955,0)">
	<path id="path3217_57_" class="st9" d="M1090.3,453.5v34"/>
</g>
<g id="use5025" transform="translate(793.1857,0)">
	<path id="path3217_58_" class="st9" d="M1102.9,453.5v34"/>
</g>
<g id="use5027" transform="matrix(1,0,0,1.246273,805.776,-120.2456)">
	<path id="path3217_59_" class="st9" d="M1115.5,445v42.4"/>
</g>
<g id="use5029" transform="translate(818.3662,0)">
	<path id="path3217_60_" class="st9" d="M1128.1,453.5v34"/>
</g>
<g id="use5031" transform="translate(830.9565,0)">
	<path id="path3217_61_" class="st9" d="M1140.7,453.5v34"/>
</g>
<g id="use5033" transform="translate(843.5467,0)">
	<path id="path3217_62_" class="st9" d="M1153.3,453.5v34"/>
</g>
<g id="use5035" transform="translate(856.137,0)">
	<path id="path3217_63_" class="st9" d="M1165.8,453.5v34"/>
</g>
<g id="use5039" transform="translate(881.3175,0)">
	<path id="path3217_64_" class="st9" d="M1191,453.5v34"/>
</g>
<g id="use5041" transform="translate(893.9077,0)">
	<path id="path3217_65_" class="st9" d="M1203.6,453.5v34"/>
</g>
<g id="use5043" transform="translate(906.498,0)">
	<path id="path3217_66_" class="st9" d="M1216.2,453.5v34"/>
</g>
<g id="use5045" transform="translate(919.0882,0)">
	<path id="path3217_67_" class="st9" d="M1228.8,453.5v34"/>
</g>
<g id="use5047" transform="matrix(1,0,0,1.246273,931.6785,-120.2456)">
	<path id="path3217_68_" class="st9" d="M1241.4,445v42.4"/>
</g>
<g id="use5049" transform="translate(944.2687,0)">
	<path id="path3217_69_" class="st9" d="M1254,453.5v34"/>
</g>
<g id="use5051" transform="translate(956.859,0)">
	<path id="path3217_70_" class="st9" d="M1266.6,453.5v34"/>
</g>
<g id="use5053" transform="translate(969.4492,0)">
	<path id="path3217_71_" class="st9" d="M1279.2,453.5v34"/>
</g>
<g id="use5055" transform="translate(982.0395,0)">
	<path id="path3217_72_" class="st9" d="M1291.8,453.5v34"/>
</g>
<g id="use5059" transform="translate(1007.22,0)">
	<path id="path3217_73_" class="st9" d="M1316.9,453.5v34"/>
</g>
<g id="use5061" transform="translate(1019.81,0)">
	<path id="path3217_74_" class="st9" d="M1329.5,453.5v34"/>
</g>
<g id="use5063" transform="translate(1032.4,0)">
	<path id="path3217_75_" class="st9" d="M1342.1,453.5v34"/>
</g>
<g id="use5065" transform="translate(1044.991,0)">
	<path id="path3217_76_" class="st9" d="M1354.7,453.5v34"/>
</g>
<g id="use5067" transform="matrix(1,0,0,1.246273,1057.581,-120.2456)">
	<path id="path3217_77_" class="st9" d="M1367.3,445v42.4"/>
</g>
<g id="use5069" transform="translate(1070.171,0)">
	<path id="path3217_78_" class="st9" d="M1379.9,453.5v34"/>
</g>
<g id="use5071" transform="translate(1082.761,0)">
	<path id="path3217_79_" class="st9" d="M1392.5,453.5v34"/>
</g>
<g id="use5073" transform="translate(1095.352,0)">
	<path id="path3217_80_" class="st9" d="M1405.1,453.5v34"/>
</g>
<g id="use5075" transform="translate(1107.942,0)">
	<path id="path3217_81_" class="st9" d="M1417.7,453.5v34"/>
</g>
<g id="use5079" transform="translate(1133.122,0)">
	<path id="path3217_82_" class="st9" d="M1442.8,453.5v34"/>
</g>
<g id="use5081" transform="translate(1145.713,0)">
	<path id="path3217_83_" class="st9" d="M1455.4,453.5v34"/>
</g>
<g id="use5083" transform="translate(1158.303,0)">
	<path id="path3217_84_" class="st9" d="M1468,453.5v34"/>
</g>
<g id="use5085" transform="translate(1170.893,0)">
	<path id="path3217_85_" class="st9" d="M1480.6,453.5v34"/>
</g>
<g id="use5087" transform="matrix(1,0,0,1.246273,1183.483,-120.2456)">
	<path id="path3217_86_" class="st9" d="M1493.2,445v42.4"/>
</g>
<g id="use5089" transform="translate(1196.074,0)">
	<path id="path3217_87_" class="st9" d="M1505.8,453.5v34"/>
</g>
<g id="use5091" transform="translate(1208.664,0)">
	<path id="path3217_88_" class="st9" d="M1518.4,453.5v34"/>
</g>
<g id="use5093" transform="translate(1221.254,0)">
	<path id="path3217_89_" class="st9" d="M1531,453.5v34"/>
</g>
<g id="use5095" transform="translate(1233.844,0)">
	<path id="path3217_90_" class="st9" d="M1543.6,453.5v34"/>
</g>
<g id="use5099" transform="translate(1259.025,0)">
	<path id="path3217_91_" class="st9" d="M1568.7,453.5v34"/>
</g>
<g id="use5101" transform="translate(1271.615,0)">
	<path id="path3217_92_" class="st9" d="M1581.3,453.5v34"/>
</g>
<g id="use5103" transform="translate(1284.206,0)">
	<path id="path3217_93_" class="st9" d="M1593.9,453.5v34"/>
</g>
<g id="use5105" transform="translate(1296.796,0)">
	<path id="path3217_94_" class="st9" d="M1606.5,453.5v34"/>
</g>
<g id="use5107" transform="matrix(1,0,0,1.246273,1309.386,-120.2456)">
	<path id="path3217_95_" class="st9" d="M1619.1,445v42.4"/>
</g>
<g id="use5109" transform="translate(1321.976,0)">
	<path id="path3217_96_" class="st9" d="M1631.7,453.5v34"/>
</g>
<g id="use5111" transform="translate(1334.566,0)">
	<path id="path3217_97_" class="st9" d="M1644.3,453.5v34"/>
</g>
<g id="use5113" transform="translate(1347.157,0)">
	<path id="path3217_98_" class="st9" d="M1656.9,453.5v34"/>
</g>
<g id="use5115" transform="translate(1359.747,0)">
	<path id="path3217_99_" class="st9" d="M1669.5,453.5v34"/>
</g>
<g id="use5119" transform="translate(1384.928,0)">
	<path id="path3217_100_" class="st9" d="M1694.6,453.5v34"/>
</g>
<g id="use5121" transform="translate(1397.518,0)">
	<path id="path3217_101_" class="st9" d="M1707.2,453.5v34"/>
</g>
<g id="use5123" transform="translate(1410.108,0)">
	<path id="path3217_102_" class="st9" d="M1719.8,453.5v34"/>
</g>
<g id="use5125" transform="translate(1422.698,0)">
	<path id="path3217_103_" class="st9" d="M1732.4,453.5v34"/>
</g>
<g id="use5127" transform="matrix(1,0,0,1.246273,1435.288,-120.2456)">
	<path id="path3217_104_" class="st9" d="M1745,445v42.4"/>
</g>
<g id="use5129" transform="translate(1447.879,0)">
	<path id="path3217_105_" class="st9" d="M1757.6,453.5v34"/>
</g>
<g id="use5131" transform="translate(1460.469,0)">
	<path id="path3217_106_" class="st9" d="M1770.2,453.5v34"/>
</g>
<g id="use5133" transform="translate(1473.059,0)">
	<path id="path3217_107_" class="st9" d="M1782.8,453.5v34"/>
</g>
<g id="use5135" transform="translate(1485.649,0)">
	<path id="path3217_108_" class="st9" d="M1795.4,453.5v34"/>
</g>
<g id="use5139" transform="translate(1510.83,0)">
	<path id="path3217_109_" class="st9" d="M1820.5,453.5v34"/>
</g>
<g id="use5141" transform="translate(1523.42,0)">
	<path id="path3217_110_" class="st9" d="M1833.1,453.5v34"/>
</g>
<g id="use5143" transform="translate(1536.01,0)">
	<path id="path3217_111_" class="st9" d="M1845.7,453.5v34"/>
</g>
<g id="use5145" transform="translate(1548.601,0)">
	<path id="path3217_112_" class="st9" d="M1858.3,453.5v34"/>
</g>
<g id="use5147" transform="matrix(1,0,0,1.246273,1561.191,-120.2456)">
	<path id="path3217_113_" class="st9" d="M1870.9,445v42.4"/>
</g>
<g id="use5149" transform="translate(1573.781,0)">
	<path id="path3217_114_" class="st9" d="M1883.5,453.5v34"/>
</g>
<g id="use5151" transform="translate(1586.371,0)">
	<path id="path3217_115_" class="st9" d="M1896.1,453.5v34"/>
</g>
<g id="use5153" transform="translate(1598.962,0)">
	<path id="path3217_116_" class="st9" d="M1908.7,453.5v34"/>
</g>
<g id="use5155" transform="translate(1611.552,0)">
	<path id="path3217_117_" class="st9" d="M1921.3,453.5v34"/>
</g>
<g id="use5159" transform="translate(1636.732,0)">
	<path id="path3217_118_" class="st9" d="M1946.4,453.5v34"/>
</g>
<g id="use5161" transform="translate(1649.323,0)">
	<path id="path3217_119_" class="st9" d="M1959,453.5v34"/>
</g>
<g id="use5163" transform="translate(1661.913,0)">
	<path id="path3217_120_" class="st9" d="M1971.6,453.5v34"/>
</g>
<g id="use5165" transform="translate(1674.503,0)">
	<path id="path3217_121_" class="st9" d="M1984.2,453.5v34"/>
</g>
<g id="use5167" transform="matrix(1,0,0,1.246273,1687.093,-120.2456)">
	<path id="path3217_122_" class="st9" d="M1996.8,445v42.4"/>
</g>
<g id="use5169" transform="translate(1699.684,0)">
	<path id="path3217_123_" class="st9" d="M2009.4,453.5v34"/>
</g>
<g id="use5171" transform="translate(1712.274,0)">
	<path id="path3217_124_" class="st9" d="M2022,453.5v34"/>
</g>
<g id="use5173" transform="translate(1724.864,0)">
	<path id="path3217_125_" class="st9" d="M2034.6,453.5v34"/>
</g>
<g id="use5175" transform="translate(1737.454,0)">
	<path id="path3217_126_" class="st9" d="M2047.2,453.5v34"/>
</g>
<g id="use5179" transform="translate(1762.635,0)">
	<path id="path3217_127_" class="st9" d="M2072.3,453.5v34"/>
</g>
<g id="use5181" transform="translate(1775.225,0)">
	<path id="path3217_128_" class="st9" d="M2084.9,453.5v34"/>
</g>
<g id="use5183" transform="translate(1787.815,0)">
	<path id="path3217_129_" class="st9" d="M2097.5,453.5v34"/>
</g>
<g id="use5185" transform="translate(1800.406,0)">
	<path id="path3217_130_" class="st9" d="M2110.1,453.5v34"/>
</g>
<g id="use5187" transform="matrix(1,0,0,1.246273,1812.996,-120.2456)">
	<path id="path3217_131_" class="st9" d="M2122.7,445v42.4"/>
</g>
<g id="use5189" transform="translate(1825.586,0)">
	<path id="path3217_132_" class="st9" d="M2135.3,453.5v34"/>
</g>
<g id="use5191" transform="translate(1838.176,0)">
	<path id="path3217_133_" class="st9" d="M2147.9,453.5v34"/>
</g>
<g id="use5193" transform="translate(1850.767,0)">
	<path id="path3217_134_" class="st9" d="M2160.5,453.5v34"/>
</g>
<g id="use5195" transform="translate(1863.357,0)">
	<path id="path3217_135_" class="st9" d="M2173.1,453.5v34"/>
</g>
<g id="use5199" transform="translate(1888.537,0)">
	<path id="path3217_136_" class="st9" d="M2198.2,453.5v34"/>
</g>
<g id="use5201" transform="translate(1901.128,0)">
	<path id="path3217_137_" class="st9" d="M2210.8,453.5v34"/>
</g>
<g id="use5203" transform="translate(1913.718,0)">
	<path id="path3217_138_" class="st9" d="M2223.4,453.5v34"/>
</g>
<g id="use5205" transform="translate(1926.308,0)">
	<path id="path3217_139_" class="st9" d="M2236,453.5v34"/>
</g>
<g id="use5207" transform="matrix(1,0,0,1.246273,1938.898,-120.2456)">
	<path id="path3217_140_" class="st9" d="M2248.6,445v42.4"/>
</g>
<g id="use5209" transform="translate(1951.489,0)">
	<path id="path3217_141_" class="st9" d="M2261.2,453.5v34"/>
</g>
<g id="use5211" transform="translate(1964.079,0)">
	<path id="path3217_142_" class="st9" d="M2273.8,453.5v34"/>
</g>
<g id="use5213" transform="translate(1976.669,0)">
	<path id="path3217_143_" class="st9" d="M2286.4,453.5v34"/>
</g>
<g id="use5215" transform="translate(1989.259,0)">
	<path id="path3217_144_" class="st9" d="M2299,453.5v34"/>
</g>
<g id="use5219" transform="translate(2014.44,0)">
	<path id="path3217_145_" class="st9" d="M2324.2,453.5v34"/>
</g>
<g id="use5221" transform="translate(2027.03,0)">
	<path id="path3217_146_" class="st9" d="M2336.7,453.5v34"/>
</g>
<g id="use5223" transform="translate(2039.62,0)">
	<path id="path3217_147_" class="st9" d="M2349.3,453.5v34"/>
</g>
<g id="use5225" transform="translate(2052.211,0)">
	<path id="path3217_148_" class="st9" d="M2361.9,453.5v34"/>
</g>
<g id="use5227" transform="matrix(1,0,0,1.246273,2064.801,-120.2456)">
	<path id="path3217_149_" class="st9" d="M2374.5,445v42.4"/>
</g>
<g id="use5229" transform="translate(2077.391,0)">
	<path id="path3217_150_" class="st9" d="M2387.1,453.5v34"/>
</g>
<g id="use5231" transform="translate(2089.981,0)">
	<path id="path3217_151_" class="st9" d="M2399.7,453.5v34"/>
</g>
<g id="use5233" transform="translate(2102.572,0)">
	<path id="path3217_152_" class="st9" d="M2412.3,453.5v34"/>
</g>
<g id="use5235" transform="translate(2115.162,0)">
	<path id="path3217_153_" class="st9" d="M2424.9,453.5v34"/>
</g>
<g id="use5239" transform="translate(2140.342,0)">
	<path id="path3217_154_" class="st9" d="M2450.1,453.5v34"/>
</g>
<g id="use5241" transform="translate(2152.933,0)">
	<path id="path3217_155_" class="st9" d="M2462.6,453.5v34"/>
</g>
<g id="use5243" transform="translate(2165.523,0)">
	<path id="path3217_156_" class="st9" d="M2475.2,453.5v34"/>
</g>
<g id="use5245" transform="translate(2178.113,0)">
	<path id="path3217_157_" class="st9" d="M2487.8,453.5v34"/>
</g>
<g id="use5247" transform="matrix(1,0,0,1.246273,2190.704,-120.2456)">
	<path id="path3217_158_" class="st9" d="M2500.4,445v42.4"/>
</g>
<g id="use5249" transform="translate(2203.294,0)">
	<path id="path3217_159_" class="st9" d="M2513,453.5v34"/>
</g>
<g id="use5251" transform="translate(2215.884,0)">
	<path id="path3217_160_" class="st9" d="M2525.6,453.5v34"/>
</g>
<g id="use5253" transform="translate(2228.474,0)">
	<path id="path3217_161_" class="st9" d="M2538.2,453.5v34"/>
</g>
<g id="use5255" transform="translate(2241.064,0)">
	<path id="path3217_162_" class="st9" d="M2550.8,453.5v34"/>
</g>
<text transform="matrix(1 0 0 1 287.4014 424.6196)" class="st10 st11">0</text>
<text transform="matrix(1 0 0 1 390.3018 442.2288)" class="st10 st12">1</text>
<text transform="matrix(1 0 0 1 515.8807 442.2288)" class="st10 st12">2</text>
<text transform="matrix(1 0 0 1 642.3281 442.2288)" class="st10 st12">3</text>
<text transform="matrix(1 0 0 1 768.9518 442.2288)" class="st10 st12">4</text>
<text transform="matrix(1 0 0 1 894.0308 442.2288)" class="st10 st12">5</text>
<text transform="matrix(1 0 0 1 1019.6099 442.2288)" class="st10 st12">6</text>
<text transform="matrix(1 0 0 1 1143.8943 442.2288)" class="st10 st12">7</text>
<text transform="matrix(1 0 0 1 1271.5626 442.2288)" class="st10 st12">8</text>
<text transform="matrix(1 0 0 1 1396.818 442.2288)" class="st10 st12">9</text>
<text transform="matrix(1 0 0 1 1536.1379 442.2288)" class="st10 st12">10</text>
<text transform="matrix(1 0 0 1 1662.688 442.2288)" class="st10 st12">11</text>
<text transform="matrix(1 0 0 1 1788.0616 442.2288)" class="st10 st12">12</text>
<text transform="matrix(1 0 0 1 1914.6117 442.2288)" class="st10 st12">13</text>
<text transform="matrix(1 0 0 1 2040.5144 442.2288)" class="st10 st12">14</text>
<text transform="matrix(1 0 0 1 2166.2407 442.2288)" class="st10 st12">15</text>
<text transform="matrix(1 0 0 1 2291.8933 442.2288)" class="st10 st12">16</text>
<text transform="matrix(1 0 0 1 2417.7959 442.2288)" class="st10 st12">17</text>
<text transform="matrix(1 0 0 1 2482.7568 437.124)" class="st10 st13">cm</text>
<path id="path5348" inkscape:connector-curvature="0" class="st14" d="M2661,473.1c0,3.5-1.8,6.7-4.8,8.4s-6.7,1.7-9.7,0
	s-4.8-4.9-4.8-8.4c0-3.5,1.8-6.7,4.8-8.4s6.7-1.7,9.7,0S2661,469.6,2661,473.1L2661,473.1z"/>
<text transform="matrix(1 0 0 1 429.6458 386.1443)" class="st10 st15">0</text>
<path id="path5390" class="st8" d="M451.8,382.8v-55.1"/>
<path id="path5404" class="st9" d="M471.6,354.1v-26.5"/>
<g id="use5408" transform="matrix(1.583566,0,0,-1,0.828367,815.2687)">
	<path id="path3217_163_" class="st9" d="M491.3,361.7v-34"/>
</g>
<g id="use5412" transform="matrix(1.583566,0,0,-1.109859,40.95336,868.9015)">
	<path id="path3217_164_" class="st9" d="M531.4,365.5v-37.7"/>
</g>
<g id="use5416" transform="matrix(1.583566,0,0,-1,80.82836,815.0187)">
	<path id="path3217_165_" class="st9" d="M571.3,361.5v-34"/>
</g>
<g id="use5420" transform="matrix(1.583566,0,0,-1.100704,120.9534,864.432)">
	<path id="path3217_166_" class="st9" d="M611.4,365.2v-37.4"/>
</g>
<path id="path5531" class="st9" d="M512.2,354.1v-26.5"/>
<path id="path5533" class="st9" d="M551.5,354.1v-26.5"/>
<path id="path5535" class="st9" d="M591.1,354.1v-26.5"/>
<path id="path5537" class="st9" d="M630.9,354.1v-26.5"/>
<g id="use5539" transform="matrix(1.583566,0,0,-0.927819,160.7717,779.7614)">
	<path id="path3217_167_" class="st9" d="M651.2,359v-31.5"/>
</g>
<path id="path5541" class="st9" d="M671,354.1v-26.5"/>
<g id="use5543" transform="matrix(1.583566,0,0,-1.090227,200.4197,859.0904)">
	<path id="path3217_168_" class="st9" d="M690.9,364.6v-37.1"/>
</g>
<path id="path5545" class="st9" d="M711.2,354.1v-26.5"/>
<g id="use5547" transform="matrix(1.583566,0,0,-0.936841,240.3914,784.1685)">
	<path id="path3217_169_" class="st9" d="M730.8,359.3v-31.8"/>
</g>
<path id="path5549" class="st9" d="M751,354.1v-26.5"/>
<path id="path5551" class="st8" d="M770.5,382.8v-55.1"/>
<path id="path5729" class="st9" d="M790.4,354.1v-26.5"/>
<g id="use5731" transform="matrix(1.583566,0,0,-1,319.6308,815.2687)">
	<path id="path3217_170_" class="st9" d="M810.1,361.7v-34"/>
</g>
<g id="use5733" transform="matrix(1.583566,0,0,-1.109859,359.7558,868.9015)">
	<path id="path3217_171_" class="st9" d="M850.2,365.5v-37.7"/>
</g>
<g id="use5735" transform="matrix(1.583566,0,0,-1,399.6308,815.0187)">
	<path id="path3217_172_" class="st9" d="M890.1,361.5v-34"/>
</g>
<g id="use5737" transform="matrix(1.583566,0,0,-1.100704,439.7558,864.432)">
	<path id="path3217_173_" class="st9" d="M930.2,365.2v-37.4"/>
</g>
<path id="path5739" class="st9" d="M831,354.1v-26.5"/>
<path id="path5741" class="st9" d="M870.3,354.1v-26.5"/>
<path id="path5743" class="st9" d="M909.9,354.1v-26.5"/>
<path id="path5745" class="st9" d="M949.7,354.1v-26.5"/>
<g id="use5747" transform="matrix(1.583566,0,0,-0.927819,479.5741,779.7614)">
	<path id="path3217_174_" class="st9" d="M970,359v-31.5"/>
</g>
<path id="path5749" class="st9" d="M989.9,354.1v-26.5"/>
<g id="use5751" transform="matrix(1.583566,0,0,-1.090227,519.2221,859.0904)">
	<path id="path3217_175_" class="st9" d="M1009.7,364.6v-37.1"/>
</g>
<path id="path5753" class="st9" d="M1030,354.1v-26.5"/>
<g id="use5755" transform="matrix(1.583566,0,0,-0.936841,559.1938,784.1685)">
	<path id="path3217_176_" class="st9" d="M1049.6,359.3v-31.8"/>
</g>
<path id="path5757" class="st9" d="M1069.8,354.1v-26.5"/>
<path id="path5759" class="st8" d="M1089.3,382.8v-55.1"/>
<path id="path5763" class="st9" d="M1109,354.1v-26.5"/>
<g id="use5765" transform="matrix(1.583566,0,0,-1,638.2715,815.2687)">
	<path id="path3217_177_" class="st9" d="M1128.7,361.7v-34"/>
</g>
<g id="use5767" transform="matrix(1.583566,0,0,-1.109859,678.3965,868.9015)">
	<path id="path3217_178_" class="st9" d="M1168.8,365.5v-37.7"/>
</g>
<g id="use5769" transform="matrix(1.583566,0,0,-1,718.2715,815.0187)">
	<path id="path3217_179_" class="st9" d="M1208.7,361.5v-34"/>
</g>
<g id="use5771" transform="matrix(1.583566,0,0,-1.100704,758.3965,864.432)">
	<path id="path3217_180_" class="st9" d="M1248.8,365.2v-37.4"/>
</g>
<path id="path5773" class="st9" d="M1149.7,354.1v-26.5"/>
<path id="path5775" class="st9" d="M1188.9,354.1v-26.5"/>
<path id="path5777" class="st9" d="M1228.5,354.1v-26.5"/>
<path id="path5779" class="st9" d="M1268.4,354.1v-26.5"/>
<g id="use5781" transform="matrix(1.583566,0,0,-0.927819,798.2148,779.7614)">
	<path id="path3217_181_" class="st9" d="M1288.7,359v-31.5"/>
</g>
<path id="path5783" class="st9" d="M1308.5,354.1v-26.5"/>
<g id="use5785" transform="matrix(1.583566,0,0,-1.090227,837.8628,859.0904)">
	<path id="path3217_182_" class="st9" d="M1328.3,364.6v-37.1"/>
</g>
<path id="path5787" class="st9" d="M1348.6,354.1v-26.5"/>
<g id="use5789" transform="matrix(1.583566,0,0,-0.936841,877.8345,784.1685)">
	<path id="path3217_183_" class="st9" d="M1368.3,359.3v-31.8"/>
</g>
<path id="path5791" class="st9" d="M1388.4,354.1v-26.5"/>
<path id="path5793" class="st8" d="M1408,382.8v-55.1"/>
<path id="path5797" class="st9" d="M1109,354.1v-26.5"/>
<path id="path5807" class="st9" d="M1149.7,354.1v-26.5"/>
<path id="path5809" class="st9" d="M1188.9,354.1v-26.5"/>
<path id="path5811" class="st9" d="M1228.5,354.1v-26.5"/>
<path id="path5813" class="st9" d="M1268.4,354.1v-26.5"/>
<path id="path5817" class="st9" d="M1308.5,354.1v-26.5"/>
<path id="path5821" class="st9" d="M1348.6,354.1v-26.5"/>
<path id="path5831" class="st9" d="M1429,354.1v-26.5"/>
<g id="use5833" transform="matrix(1.583566,0,0,-1,958.2358,815.2687)">
	<path id="path3217_184_" class="st9" d="M1448.7,361.7v-34"/>
</g>
<g id="use5835" transform="matrix(1.583566,0,0,-1.109859,998.3608,868.9015)">
	<path id="path3217_185_" class="st9" d="M1488.8,365.5v-37.7"/>
</g>
<g id="use5837" transform="matrix(1.583566,0,0,-1,1038.236,815.0187)">
	<path id="path3217_186_" class="st9" d="M1528.7,361.5v-34"/>
</g>
<g id="use5839" transform="matrix(1.583566,0,0,-1.100704,1078.361,864.432)">
	<path id="path3217_187_" class="st9" d="M1568.8,365.2v-37.4"/>
</g>
<path id="path5841" class="st9" d="M1469.6,354.1v-26.5"/>
<path id="path5843" class="st9" d="M1508.9,354.1v-26.5"/>
<path id="path5845" class="st9" d="M1548.5,354.1v-26.5"/>
<path id="path5847" class="st9" d="M1588.3,354.1v-26.5"/>
<g id="use5849" transform="matrix(1.583566,0,0,-0.927819,1118.179,779.7614)">
	<path id="path3217_188_" class="st9" d="M1608.6,359v-31.5"/>
</g>
<path id="path5851" class="st9" d="M1628.5,354.1v-26.5"/>
<g id="use5853" transform="matrix(1.583566,0,0,-1.090227,1157.827,859.0904)">
	<path id="path3217_189_" class="st9" d="M1648.3,364.6v-37.1"/>
</g>
<path id="path5855" class="st9" d="M1668.6,354.1v-26.5"/>
<g id="use5857" transform="matrix(1.583566,0,0,-0.936841,1197.799,784.1685)">
	<path id="path3217_190_" class="st9" d="M1688.2,359.3v-31.8"/>
</g>
<path id="path5859" class="st9" d="M1708.4,354.1v-26.5"/>
<path id="path5861" class="st8" d="M1728,382.8v-55.1"/>
<path id="path5865" class="st9" d="M1747.9,354.1v-26.5"/>
<g id="use5867" transform="matrix(1.583566,0,0,-1,1277.173,815.2687)">
	<path id="path3217_191_" class="st9" d="M1767.6,361.7v-34"/>
</g>
<g id="use5869" transform="matrix(1.583566,0,0,-1.109859,1317.298,868.9015)">
	<path id="path3217_192_" class="st9" d="M1807.7,365.5v-37.7"/>
</g>
<g id="use5871" transform="matrix(1.583566,0,0,-1,1357.173,815.0187)">
	<path id="path3217_193_" class="st9" d="M1847.6,361.5v-34"/>
</g>
<g id="use5873" transform="matrix(1.583566,0,0,-1.100704,1397.298,864.432)">
	<path id="path3217_194_" class="st9" d="M1887.7,365.2v-37.4"/>
</g>
<path id="path5875" class="st9" d="M1788.6,354.1v-26.5"/>
<path id="path5877" class="st9" d="M1827.8,354.1v-26.5"/>
<path id="path5879" class="st9" d="M1867.5,354.1v-26.5"/>
<path id="path5881" class="st9" d="M1907.3,354.1v-26.5"/>
<g id="use5883" transform="matrix(1.583566,0,0,-0.927819,1437.116,779.7614)">
	<path id="path3217_195_" class="st9" d="M1927.6,359v-31.5"/>
</g>
<path id="path5885" class="st9" d="M1947.4,354.1v-26.5"/>
<g id="use5887" transform="matrix(1.583566,0,0,-1.090227,1476.764,859.0904)">
	<path id="path3217_196_" class="st9" d="M1967.2,364.6v-37.1"/>
</g>
<path id="path5889" class="st9" d="M1987.5,354.1v-26.5"/>
<g id="use5891" transform="matrix(1.583566,0,0,-0.936841,1516.736,784.1685)">
	<path id="path3217_197_" class="st9" d="M2007.2,359.3v-31.8"/>
</g>
<path id="path5893" class="st9" d="M2027.3,354.1v-26.5"/>
<path id="path5895" class="st8" d="M2046.9,382.8v-55.1"/>
<path id="path5899" class="st9" d="M2066.7,354.1v-26.5"/>
<g id="use5901" transform="matrix(1.583566,0,0,-1,1595.975,815.2687)">
	<path id="path3217_198_" class="st9" d="M2086.4,361.7v-34"/>
</g>
<g id="use5903" transform="matrix(1.583566,0,0,-1.109859,1636.1,868.9015)">
	<path id="path3217_199_" class="st9" d="M2126.5,365.5v-37.7"/>
</g>
<g id="use5905" transform="matrix(1.583566,0,0,-1,1675.975,815.0187)">
	<path id="path3217_200_" class="st9" d="M2166.4,361.5v-34"/>
</g>
<g id="use5907" transform="matrix(1.583566,0,0,-1.100704,1716.1,864.432)">
	<path id="path3217_201_" class="st9" d="M2206.5,365.2v-37.4"/>
</g>
<path id="path5909" class="st9" d="M2107.4,354.1v-26.5"/>
<path id="path5911" class="st9" d="M2146.6,354.1v-26.5"/>
<path id="path5913" class="st9" d="M2186.3,354.1v-26.5"/>
<path id="path5915" class="st9" d="M2226.1,354.1v-26.5"/>
<g id="use5917" transform="matrix(1.583566,0,0,-0.927819,1755.918,779.7614)">
	<path id="path3217_202_" class="st9" d="M2246.4,359v-31.5"/>
</g>
<path id="path5919" class="st9" d="M2266.2,354.1v-26.5"/>
<g id="use5921" transform="matrix(1.583566,0,0,-1.090227,1795.566,859.0904)">
	<path id="path3217_203_" class="st9" d="M2286,364.6v-37.1"/>
</g>
<path id="path5923" class="st9" d="M2306.3,354.1v-26.5"/>
<g id="use5925" transform="matrix(1.583566,0,0,-0.936841,1835.538,784.1685)">
	<path id="path3217_204_" class="st9" d="M2326,359.3v-31.8"/>
</g>
<path id="path5927" class="st9" d="M2346.1,354.1v-26.5"/>
<path id="path5929" class="st8" d="M2365.7,382.8v-55.1"/>
<path id="rect5932" class="st16" d="M682.2,298.4l0.1,48.2h526.1v-48.2H682.2z"/>
<path id="path5937" class="st8" d="M764.1,304.5v41.2"/>
<path id="path5939" class="st8" d="M834.1,304.5v41.2"/>
<path id="path5941" class="st8" d="M903.5,304.5v41.2"/>
<path id="path5943" class="st9" d="M799.1,319.3v26.5"/>
<path id="path5945" class="st9" d="M869.1,319.3v26.5"/>
<path id="path5947" class="st17" d="M782.2,331v15.8"/>
<path id="path5949" class="st17" d="M816.7,331v15.8"/>
<path id="path5951" class="st17" d="M851.7,331v15.8"/>
<path id="path5953" class="st17" d="M886.3,331v15.8"/>
<text transform="matrix(1 0 0 1 769.0701 324.1545)" class="st10 st13">0</text>
<text transform="matrix(1 0 0 1 818.0463 324.1545)" class="st10 st13">4</text>
<text transform="matrix(1 0 0 1 885.9966 323.6968)" class="st10 st13">8</text>
<text transform="matrix(1 0 0 1 933.35 325.5276)" class="st10 st18">1/128</text>
<rect id="rect2779" x="588.1" y="481.1" class="st19" width="620.8" height="102"/>
<path id="rect2781" class="st20" d="M588.1,532.3V583h620.7v-50.7H588.1z"/>
<path id="path5972" class="st8" d="M608.7,481.2v46.2"/>
<path id="path5976" class="st9" d="M658.3,480.9v41.7"/>
<path id="path5978" class="st17" d="M634.1,481.4v28.1"/>
<path id="path5980" class="st9" d="M707.1,480.9v41.7"/>
<path id="path5982" class="st17" d="M682.8,481.4v28.1"/>
<path id="path5984" class="st9" d="M756.3,480.9v41.7"/>
<path id="path5986" class="st17" d="M732,481.4v28.1"/>
<path id="path5988" class="st9" d="M805.5,480.9v41.7"/>
<path id="path5990" class="st17" d="M781.2,481.4v28.1"/>
<path id="path5992" class="st9" d="M854.7,480.9v41.7"/>
<path id="path5994" class="st17" d="M830.4,481.4v28.1"/>
<path id="path5996" class="st9" d="M903.2,480.9v41.7"/>
<path id="path5998" class="st17" d="M879,481.4v28.1"/>
<path id="path6000" class="st9" d="M952.4,480.9v41.7"/>
<path id="path6002" class="st17" d="M928.2,481.4v28.1"/>
<path id="path6004" class="st9" d="M1001.4,480.9v41.7"/>
<path id="path6006" class="st17" d="M977.1,481.4v28.1"/>
<path id="path6008" class="st9" d="M1050.6,480.9v41.7"/>
<path id="path6010" class="st17" d="M1026.3,481.4v28.1"/>
<path id="path6014" class="st17" d="M1076,481.4v28.1"/>
<path id="path6018" class="st8" d="M1100.3,481.2v46.2"/>
<text transform="matrix(1 0 0 1 613.7109 524.1784)" class="st10 st13">0 </text>
<text transform="matrix(1 0 0 1 641.8238 524.1784)" class="st10 st13">1</text>
<text transform="matrix(1 0 0 1 690.7999 523.9495)" class="st10 st13">2</text>
<text transform="matrix(1 0 0 1 739.3183 523.4918)" class="st10 st13">3</text>
<text transform="matrix(1 0 0 1 788.7521 523.9495)" class="st10 st13">4</text>
<text transform="matrix(1 0 0 1 837.4994 523.0341)" class="st10 st13">5</text>
<text transform="matrix(1 0 0 1 886.7043 523.7206)" class="st10 st13">6</text>
<text transform="matrix(1 0 0 1 935.9093 523.7206)" class="st10 st13">7</text>
<text transform="matrix(1 0 0 1 984.4277 524.1784)" class="st10 st13">8</text>
<text transform="matrix(1 0 0 1 1033.6326 524.1784)" class="st10 st13">9</text>
<text transform="matrix(1 0 0 1 1082.151 524.1398)" class="st10 st13">0</text>
<text transform="matrix(1 0 0 1 1126.4617 512.7354)" class="st10 st21">1/20</text>
<path class="st22" d=""/>
<path id="path6189" class="st23" d="M203.1,789.2c0-4.4,3.6-8,8-8s8,3.6,8,8s-3.6,8-8,8S203.1,793.6,203.1,789.2z"/>
<path id="path6076" class="st24" d="M210.9,789.2"/>
<path class="st22" d=""/>
<path id="path6189_1_" class="st23" d="M607.8,789.2c0,4.4-3.6,8-8,8c-4.4,0-8-3.6-8-8s3.6-8,8-8
	C604.2,781.2,607.8,784.7,607.8,789.2z"/>
<path id="path6258" class="st24" d="M599.9,789.2"/>
<path id="path6264" class="st25" d="M440.1,791.7c0,19.2-15.6,34.8-34.8,34.8c-19.2,0-34.8-15.6-34.8-34.8
	c0-19.2,15.6-34.8,34.8-34.8C424.5,756.9,440.1,772.5,440.1,791.7L440.1,791.7z"/>
<text transform="matrix(1 0 0 1 390.1005 811.82)" class="st26 st27">1</text>
<path class="st22" d=""/>
<path id="path6189_2_" class="st23" d="M271.1,97.7c0-4.4,3.6-8,8-8c4.4,0,8,3.6,8,8s-3.6,8-8,8C274.7,105.7,271.1,102.2,271.1,97.7
	z"/>
<path id="path6267" class="st24" d="M278.9,97.7"/>
<path class="st22" d=""/>
<path id="path6189_3_" class="st23" d="M538.9,98.2c0,4.4-3.6,8-8,8c-4.4,0-8-3.6-8-8s3.6-8,8-8C535.3,90.2,538.9,93.8,538.9,98.2z"
	/>
<path id="path6269" class="st24" d="M531,743.7"/>
<g id="g3546">
	<path id="path6271" class="st25" d="M438.6,98.5c0,19.2-15.6,34.8-34.8,34.8c-19.2,0-34.8-15.6-34.8-34.8s15.6-34.8,34.8-34.8
		C423,63.7,438.6,79.3,438.6,98.5L438.6,98.5z"/>
	<text transform="matrix(1 0 0 1 388.9735 118.6487)" class="st26 st27">2</text>
</g>
<text transform="matrix(1 0 0 1 747.4597 384.9415)" class="st10 st15">1</text>
<text transform="matrix(1 0 0 1 1067.8805 385.5888)" class="st10 st15">2</text>
<text transform="matrix(1 0 0 1 1387.6539 384.9415)" class="st10 st15">3</text>
<text transform="matrix(1 0 0 1 1702.8962 383.6469)" class="st10 st15">4</text>
<text transform="matrix(1 0 0 1 2024.9352 384.6179)" class="st10 st15">5</text>
<text transform="matrix(1 0 0 1 2345.6794 384.9415)" class="st10 st15">6</text>
<path class="st22" d=""/>
<path id="path6189_4_" class="st23" d="M851.5,317.7c-4.4,0-8-3.6-8-8c0-4.4,3.6-8,8-8s8,3.6,8,8
	C859.5,314.1,855.9,317.7,851.5,317.7z"/>
<path id="path6301" class="st24" d="M851.5,309.9"/>
<text transform="matrix(1 0 0 1 885.9966 323.6968)" class="st10 st13">8</text>
<g id="g6517" transform="translate(25.53991,19.79605)">
	<path id="path6307" class="st25" d="M861.8,79c0,19.5-15.8,35.3-35.3,35.3S791.2,98.5,791.2,79s15.8-35.3,35.3-35.3
		S861.8,59.5,861.8,79z"/>
	<text transform="matrix(1 0 0 1 810.9696 98.7729)" class="st26 st27">7</text>
</g>
<path class="st22" d=""/>
<path id="path6189_5_" class="st23" d="M1408.1,334.2c-4.4,0-8-3.6-8-8c0-4.4,3.6-8,8-8s8,3.6,8,8
	C1416.1,330.6,1412.5,334.2,1408.1,334.2z"/>
<path id="path6323" class="st24" d="M1408.1,326.4"/>
<path class="st22" d=""/>
<path id="path6189_6_" class="st23" d="M2834.9,402.4c4.4,0,8,3.6,8,8c0,4.4-3.6,8-8,8s-8-3.6-8-8
	C2826.9,406,2830.5,402.4,2834.9,402.4z"/>
<path id="path6342" class="st24" d="M2834.9,410.3"/>
<g id="g6469" transform="translate(25.53991,19.79605)">
	<path id="path6344" class="st25" d="M2845.1,593.8c0-19.5-15.8-35.3-35.3-35.3s-35.3,15.8-35.3,35.3c0,19.5,15.8,35.3,35.3,35.3
		S2845.1,613.2,2845.1,593.8z"/>
	<text transform="matrix(1 0 0 1 2794.4243 613.5475)" class="st26 st27">3</text>
</g>
<text transform="matrix(1 0 0 1 2391.9011 359.3725)" class="st10 st28">inch</text>
<path class="st22" d=""/>
<path id="path6189_7_" class="st23" d="M1492.5,486.4c4.4,0,8,3.6,8,8c0,4.4-3.6,8-8,8s-8-3.6-8-8
	C1484.5,490,1488.1,486.4,1492.5,486.4z"/>
<path id="path6367" class="st24" d="M1492.5,494.2"/>
<g id="g6486" transform="translate(25.53991,19.79605)">
	<path id="path6369" class="st25" d="M1504.5,771.8c0-19.5-15.8-35.3-35.3-35.3s-35.3,15.8-35.3,35.3c0,19.5,15.8,35.3,35.3,35.3
		S1504.5,791.3,1504.5,771.8z"/>
	<text transform="matrix(1 0 0 1 1453.8082 791.901)" class="st26 st27">4</text>
</g>
<path class="st22" d=""/>
<path id="path6189_8_" class="st23" d="M1111.5,243.6c4.4,0,8-3.6,8-8s-3.6-8-8-8s-8,3.6-8,8S1107.1,243.6,1111.5,243.6z"/>
<path id="path6376" class="st24" d="M1135.9,654.7"/>
<g id="g6536" transform="translate(25.53991,19.79605)">
	<path id="path6378" class="st25" d="M1121.3,78.4c0-19.5-15.8-35.3-35.3-35.3s-35.3,15.8-35.3,35.3s15.8,35.3,35.3,35.3
		S1121.3,97.9,1121.3,78.4z"/>
	<text transform="matrix(1 0 0 1 1070.5557 98.2079)" class="st26 st27">8</text>
</g>
<path class="st22" d=""/>
<path id="path6189_9_" class="st23" d="M820.2,509.4c4.4,0,8,3.6,8,8c0,4.4-3.6,8-8,8s-8-3.6-8-8C812.2,513,815.8,509.4,820.2,509.4
	z"/>
<path id="path6388" class="st24" d="M820.2,517.3"/>
<g id="g6504" transform="translate(25.53991,19.7959)">
	<path id="path6390" class="st25" d="M832.2,771.7c0-19.5-15.8-35.3-35.3-35.3s-35.3,15.8-35.3,35.3c0,19.5,15.8,35.3,35.3,35.3
		S832.2,791.1,832.2,771.7z"/>
	<text transform="matrix(1 0 0 1 781.197 791.4338)" class="st26 st27">6</text>
</g>
<g id="g6669" transform="matrix(0.978367,0,0,0.978367,54.51297,25.31978)">
	<path id="path6671" class="st29" d="M1418.3,79c0,19.5-15.8,35.3-35.3,35.3s-35.3-15.8-35.3-35.3s15.8-35.3,35.3-35.3
		S1418.3,59.5,1418.3,79z"/>
	<text transform="matrix(1.0221 0 0 1.0221 1366.7543 98.8606)" class="st26 st27">5</text>
</g>
<line class="st0" x1="1492.5" y1="494.2" x2="1492.5" y2="756.3"/>
<line class="st0" x1="1407.7" y1="137.1" x2="1408.1" y2="326.4"/>
<line class="st0" x1="851.5" y1="309.9" x2="852" y2="134.1"/>
<line class="st0" x1="1111.5" y1="235.8" x2="1111.5" y2="134.1"/>
<line class="st0" x1="820.2" y1="517.3" x2="822.5" y2="756.2"/>
<line class="st0" x1="2834.9" y1="410.3" x2="2835.4" y2="578.3"/>
<rect x="1105.4" y="234.4" class="st30" width="12.2" height="16"/>
<path class="st31" d="M1124.6,244.7h-26c-2.3,0-4.2-1.9-4.2-4.2v-14.5c0-2.3,1.9-4.2,4.2-4.2h26c2.3,0,4.2,1.9,4.2,4.2v14.5
	C1128.7,242.8,1126.9,244.7,1124.6,244.7z"/>
</svg>
