<svg xmlns="http://www.w3.org/2000/svg" xmlns:svg="http://www.w3.org/2000/svg" xmlns:xlink="http://www.w3.org/1999/xlink" style="enable-background:new 0 0 3040 1080" id="svg2" x="0" y="0" version="1.1" viewBox="0 0 3040 1080" xml:space="preserve"><style type="text/css">.st0{fill:#ccc}.st0,.st1,.st2,.st3{fill-rule:evenodd;clip-rule:evenodd;stroke:#000;stroke-width:3}.st1{fill:#b2b2b2;stroke-linejoin:round}.st2{fill:#999}.st3{fill:#ccc;stroke-linejoin:round}.st4,.st5{fill:none;stroke:#231f20;stroke-width:3;stroke-linecap:round;stroke-miterlimit:10}.st5{stroke:#616162}.st6,.st7{stroke:#000}.st6{fill:none;stroke-width:3;stroke-linecap:round;stroke-miterlimit:10}.st7{fill-rule:evenodd;clip-rule:evenodd}.st8{font-family:&apos;SourceHanSansSC-Bold-GBpc-EUC-H&apos;}.st9{font-size:32px}.st10,.st11,.st12{stroke:#000;stroke-width:3}.st10{fill-rule:evenodd;clip-rule:evenodd;fill:#e5e5e5}.st11,.st12{stroke-linejoin:round}.st11{fill-rule:evenodd;clip-rule:evenodd;fill:#e5e5e5}.st12{fill:none}.st13{font-size:36px}.st14{font-size:40px}.st15{fill:#616162}.st16{font-size:24px}.st17{fill:none;stroke:#000;stroke-linecap:round}.st18,.st19{enable-background:new}.st19{fill-rule:evenodd;clip-rule:evenodd;stroke:#000}.st20{fill:none;stroke:#000;stroke-width:5;stroke-miterlimit:10}.st21{fill-rule:evenodd;clip-rule:evenodd;stroke:#000;stroke-width:1.6;stroke-miterlimit:6.4}.st22{fill:#fff;stroke:#000;stroke-width:2;stroke-linecap:round;stroke-linejoin:round}.st23{font-size:56px}.st24{font-size:26px}.st25{fill:#1d1d1b}.st26{fill:#373736}.st27{fill-rule:evenodd;clip-rule:evenodd;fill:none;stroke:#000;stroke-width:3;stroke-linejoin:round}.st28,.st29,.st30{stroke:#000;stroke-linecap:round}.st28{fill:#e5e5e5;stroke-width:3;stroke-linejoin:round}.st29,.st30{fill:none;stroke-width:2}.st30{stroke-width:1.5}.st31{font-size:20px}.st32{fill:#e5e5e5;stroke:#000;stroke-width:3;stroke-linejoin:round}.st33{font-size:22px}.st34{fill:#fff;stroke:#000;stroke-width:1.9567;stroke-linecap:round;stroke-linejoin:round;stroke-miterlimit:3.8288}.st35{font-size:.1px}</style><switch><g><path id="path3177" d="M587.6,581.9v34L558,616v441.5c0,0,88.8,5.4,118.9-107.2c30.2-112.6,70.2-262,76.9-287.1 s22.9-35.3,61.1-35.3s394.3,0,394.3,0c0.1-39.4,0.1-78.7,0.2-118.1c-206.9,0-413.9,0-620.8,0C588.3,533.8,587.9,557.9,587.6,581.9 z" class="st0"/><path id="path2772" d="M682.1,249.7h526.3v96.9H682.2L682.1,249.7z" class="st1"/><path id="path2821" d="M2699.1,387.3h247.2v18.8h65.5v24.7h-313.5L2699.1,387.3z" class="st2"/><path id="path1873" d="M244.7,244.2c0,0-196.5,0-206.2,0s-10.2,4.9-10.2,10.2c0,5.3,0,316.7,0,316.7 s96.2,359,108.8,406.2c12.7,47.2,48.9,79.9,107.2,79.9c0-63.8,0-547.6,0-547.6h2454.9V310.8h-2318v7.4h-44.7c0,0,0-26.5,0-105.5 c0-125.1-91-190-91.3-190.3C245.3,28.5,244.7,230.7,244.7,244.2z" class="st3"/><g><line x1="274.5" x2="274.5" y1="447.7" y2="507.7" class="st4"/><line x1="287" x2="287" y1="477.7" y2="507.7" class="st5"/><line x1="300" x2="300" y1="477.7" y2="507.7" class="st5"/><line x1="312.5" x2="312.5" y1="477.7" y2="507.7" class="st5"/><line x1="325.5" x2="325.5" y1="477.7" y2="507.7" class="st5"/><line x1="350.1" x2="350.1" y1="477.7" y2="507.7" class="st5"/><line x1="362.8" x2="362.8" y1="477.7" y2="507.7" class="st5"/><line x1="375.6" x2="375.6" y1="477.7" y2="507.7" class="st5"/><line x1="388.3" x2="388.3" y1="477.7" y2="507.7" class="st5"/><line x1="401.4" x2="401.4" y1="448.7" y2="507.7" class="st4"/><line x1="337.9" x2="337.9" y1="457.7" y2="507.7" class="st5"/><line x1="413.8" x2="413.8" y1="477.7" y2="507.7" class="st5"/><line x1="426.8" x2="426.8" y1="477.7" y2="507.7" class="st5"/><line x1="439.3" x2="439.3" y1="477.7" y2="507.7" class="st5"/><line x1="452.3" x2="452.3" y1="477.7" y2="507.7" class="st5"/><line x1="476.9" x2="476.9" y1="477.7" y2="507.7" class="st5"/><line x1="489.7" x2="489.7" y1="477.7" y2="507.7" class="st5"/><line x1="502.4" x2="502.4" y1="477.7" y2="507.7" class="st5"/><line x1="515.2" x2="515.2" y1="477.7" y2="507.7" class="st5"/><line x1="528.2" x2="528.2" y1="448.7" y2="507.7" class="st4"/><line x1="464.8" x2="464.8" y1="457.7" y2="507.7" class="st5"/><line x1="540.7" x2="540.7" y1="477.7" y2="507.7" class="st5"/><line x1="553.7" x2="553.7" y1="477.7" y2="507.7" class="st5"/><line x1="566.2" x2="566.2" y1="477.7" y2="507.7" class="st5"/><line x1="579.2" x2="579.2" y1="477.7" y2="507.7" class="st5"/><line x1="603.8" x2="603.8" y1="477.7" y2="507.7" class="st5"/><line x1="616.5" x2="616.5" y1="477.7" y2="507.7" class="st5"/><line x1="629.3" x2="629.3" y1="477.7" y2="507.7" class="st5"/><line x1="642" x2="642" y1="477.7" y2="507.7" class="st5"/><line x1="655.1" x2="655.1" y1="448.7" y2="507.7" class="st4"/><line x1="591.6" x2="591.6" y1="457.7" y2="507.7" class="st5"/><line x1="667.5" x2="667.5" y1="477.7" y2="507.7" class="st5"/><line x1="680.5" x2="680.5" y1="477.7" y2="507.7" class="st5"/><line x1="693" x2="693" y1="477.7" y2="507.7" class="st5"/><line x1="706" x2="706" y1="477.7" y2="507.7" class="st5"/><line x1="730.6" x2="730.6" y1="477.7" y2="507.7" class="st5"/><line x1="743.3" x2="743.3" y1="477.7" y2="507.7" class="st5"/><line x1="756.1" x2="756.1" y1="477.7" y2="507.7" class="st5"/><line x1="768.8" x2="768.8" y1="477.7" y2="507.7" class="st5"/><line x1="781.9" x2="781.9" y1="448.7" y2="507.7" class="st4"/><line x1="718.5" x2="718.5" y1="457.7" y2="507.7" class="st5"/><line x1="794.4" x2="794.4" y1="477.7" y2="507.7" class="st5"/><line x1="807.3" x2="807.3" y1="477.7" y2="507.7" class="st5"/><line x1="819.9" x2="819.9" y1="477.7" y2="507.7" class="st5"/><line x1="832.9" x2="832.9" y1="477.7" y2="507.7" class="st5"/><line x1="857.5" x2="857.5" y1="477.7" y2="507.7" class="st5"/><line x1="870.2" x2="870.2" y1="477.7" y2="507.7" class="st5"/><line x1="882.9" x2="882.9" y1="477.7" y2="507.7" class="st5"/><line x1="895.7" x2="895.7" y1="477.7" y2="507.7" class="st5"/><line x1="908.7" x2="908.7" y1="448.7" y2="507.7" class="st4"/><line x1="845.3" x2="845.3" y1="457.7" y2="507.7" class="st5"/><line x1="921.2" x2="921.2" y1="477.7" y2="507.7" class="st5"/><line x1="934.2" x2="934.2" y1="477.7" y2="507.7" class="st5"/><line x1="946.7" x2="946.7" y1="477.7" y2="507.7" class="st5"/><line x1="959.7" x2="959.7" y1="477.7" y2="507.7" class="st5"/><line x1="984.3" x2="984.3" y1="477.7" y2="507.7" class="st5"/><line x1="997" x2="997" y1="477.7" y2="507.7" class="st5"/><line x1="1009.8" x2="1009.8" y1="477.7" y2="507.7" class="st5"/><line x1="1022.5" x2="1022.5" y1="477.7" y2="507.7" class="st5"/><line x1="1035.6" x2="1035.6" y1="448.7" y2="507.7" class="st4"/><line x1="972.2" x2="972.2" y1="457.7" y2="507.7" class="st5"/><line x1="1048.1" x2="1048.1" y1="477.7" y2="507.7" class="st5"/><line x1="1061" x2="1061" y1="477.7" y2="507.7" class="st5"/><line x1="1073.5" x2="1073.5" y1="477.7" y2="507.7" class="st5"/><line x1="1086.5" x2="1086.5" y1="477.7" y2="507.7" class="st5"/><line x1="1111.2" x2="1111.2" y1="477.7" y2="507.7" class="st5"/><line x1="1123.9" x2="1123.9" y1="477.7" y2="507.7" class="st5"/><line x1="1136.6" x2="1136.6" y1="477.7" y2="507.7" class="st5"/><line x1="1149.4" x2="1149.4" y1="477.7" y2="507.7" class="st5"/><line x1="1162.4" x2="1162.4" y1="448.7" y2="507.7" class="st4"/><line x1="1099" x2="1099" y1="457.7" y2="507.7" class="st5"/><line x1="1174.9" x2="1174.9" y1="477.7" y2="507.7" class="st5"/><line x1="1187.9" x2="1187.9" y1="477.7" y2="507.7" class="st5"/><line x1="1200.4" x2="1200.4" y1="477.7" y2="507.7" class="st5"/><line x1="1213.4" x2="1213.4" y1="477.7" y2="507.7" class="st5"/><line x1="1238" x2="1238" y1="477.7" y2="507.7" class="st5"/><line x1="1250.7" x2="1250.7" y1="477.7" y2="507.7" class="st5"/><line x1="1263.4" x2="1263.4" y1="477.7" y2="507.7" class="st5"/><line x1="1276.2" x2="1276.2" y1="477.7" y2="507.7" class="st5"/><line x1="1289.3" x2="1289.3" y1="448.7" y2="507.7" class="st4"/><line x1="1225.8" x2="1225.8" y1="457.7" y2="507.7" class="st5"/><line x1="1301.7" x2="1301.7" y1="477.7" y2="507.7" class="st5"/><line x1="1314.7" x2="1314.7" y1="477.7" y2="507.7" class="st5"/><line x1="1327.2" x2="1327.2" y1="477.7" y2="507.7" class="st5"/><line x1="1340.2" x2="1340.2" y1="477.7" y2="507.7" class="st5"/><line x1="1364.8" x2="1364.8" y1="477.7" y2="507.7" class="st5"/><line x1="1377.5" x2="1377.5" y1="477.7" y2="507.7" class="st5"/><line x1="1390.3" x2="1390.3" y1="477.7" y2="507.7" class="st5"/><line x1="1403" x2="1403" y1="477.7" y2="507.7" class="st5"/><line x1="1416.1" x2="1416.1" y1="448.7" y2="507.7" class="st4"/><line x1="1352.7" x2="1352.7" y1="457.7" y2="507.7" class="st5"/><line x1="1428.6" x2="1428.6" y1="477.7" y2="507.7" class="st5"/><line x1="1441.6" x2="1441.6" y1="477.7" y2="507.7" class="st5"/><line x1="1454.1" x2="1454.1" y1="477.7" y2="507.7" class="st5"/><line x1="1467.1" x2="1467.1" y1="477.7" y2="507.7" class="st5"/><line x1="1491.7" x2="1491.7" y1="477.7" y2="507.7" class="st5"/><line x1="1504.4" x2="1504.4" y1="477.7" y2="507.7" class="st5"/><line x1="1517.1" x2="1517.1" y1="477.7" y2="507.7" class="st5"/><line x1="1529.9" x2="1529.9" y1="477.7" y2="507.7" class="st5"/><line x1="1542.9" x2="1542.9" y1="448.7" y2="507.7" class="st4"/><line x1="1479.5" x2="1479.5" y1="457.7" y2="507.7" class="st5"/><line x1="1555.4" x2="1555.4" y1="477.7" y2="507.7" class="st5"/><line x1="1568.4" x2="1568.4" y1="477.7" y2="507.7" class="st5"/><line x1="1580.9" x2="1580.9" y1="477.7" y2="507.7" class="st5"/><line x1="1593.9" x2="1593.9" y1="477.7" y2="507.7" class="st5"/><line x1="1618.5" x2="1618.5" y1="477.7" y2="507.7" class="st5"/><line x1="1631.2" x2="1631.2" y1="477.7" y2="507.7" class="st5"/><line x1="1644" x2="1644" y1="477.7" y2="507.7" class="st5"/><line x1="1656.7" x2="1656.7" y1="477.7" y2="507.7" class="st5"/><line x1="1669.8" x2="1669.8" y1="448.7" y2="507.7" class="st4"/><line x1="1606.4" x2="1606.4" y1="457.7" y2="507.7" class="st5"/><line x1="1682.2" x2="1682.2" y1="477.7" y2="507.7" class="st5"/><line x1="1695.2" x2="1695.2" y1="477.7" y2="507.7" class="st5"/><line x1="1707.7" x2="1707.7" y1="477.7" y2="507.7" class="st5"/><line x1="1720.7" x2="1720.7" y1="477.7" y2="507.7" class="st5"/><line x1="1745.3" x2="1745.3" y1="477.7" y2="507.7" class="st5"/><line x1="1758.1" x2="1758.1" y1="477.7" y2="507.7" class="st5"/><line x1="1770.8" x2="1770.8" y1="477.7" y2="507.7" class="st5"/><line x1="1783.6" x2="1783.6" y1="477.7" y2="507.7" class="st5"/><line x1="1796.6" x2="1796.6" y1="448.7" y2="507.7" class="st4"/><line x1="1733.2" x2="1733.2" y1="457.7" y2="507.7" class="st5"/><line x1="1809.1" x2="1809.1" y1="477.7" y2="507.7" class="st5"/><line x1="1822.1" x2="1822.1" y1="477.7" y2="507.7" class="st5"/><line x1="1834.6" x2="1834.6" y1="477.7" y2="507.7" class="st5"/><line x1="1847.6" x2="1847.6" y1="477.7" y2="507.7" class="st5"/><line x1="1872.2" x2="1872.2" y1="477.7" y2="507.7" class="st5"/><line x1="1884.9" x2="1884.9" y1="477.7" y2="507.7" class="st5"/><line x1="1897.7" x2="1897.7" y1="477.7" y2="507.7" class="st5"/><line x1="1910.4" x2="1910.4" y1="477.7" y2="507.7" class="st5"/><line x1="1923.5" x2="1923.5" y1="448.7" y2="507.7" class="st4"/><line x1="1860" x2="1860" y1="457.7" y2="507.7" class="st5"/><line x1="1935.9" x2="1935.9" y1="477.7" y2="507.7" class="st5"/><line x1="1948.9" x2="1948.9" y1="477.7" y2="507.7" class="st5"/><line x1="1961.4" x2="1961.4" y1="477.7" y2="507.7" class="st5"/><line x1="1974.4" x2="1974.4" y1="477.7" y2="507.7" class="st5"/><line x1="1999" x2="1999" y1="477.7" y2="507.7" class="st5"/><line x1="2011.8" x2="2011.8" y1="477.7" y2="507.7" class="st5"/><line x1="2024.5" x2="2024.5" y1="477.7" y2="507.7" class="st5"/><line x1="2037.3" x2="2037.3" y1="477.7" y2="507.7" class="st5"/><line x1="2050.3" x2="2050.3" y1="448.7" y2="507.7" class="st4"/><line x1="1986.9" x2="1986.9" y1="457.7" y2="507.7" class="st5"/><line x1="2062.8" x2="2062.8" y1="477.7" y2="507.7" class="st5"/><line x1="2075.8" x2="2075.8" y1="477.7" y2="507.7" class="st5"/><line x1="2088.3" x2="2088.3" y1="477.7" y2="507.7" class="st5"/><line x1="2101.3" x2="2101.3" y1="477.7" y2="507.7" class="st5"/><line x1="2125.9" x2="2125.9" y1="477.7" y2="507.7" class="st5"/><line x1="2138.6" x2="2138.6" y1="477.7" y2="507.7" class="st5"/><line x1="2151.4" x2="2151.4" y1="477.7" y2="507.7" class="st5"/><line x1="2164.1" x2="2164.1" y1="477.7" y2="507.7" class="st5"/><line x1="2177.2" x2="2177.2" y1="448.7" y2="507.7" class="st4"/><line x1="2113.7" x2="2113.7" y1="457.7" y2="507.7" class="st5"/><line x1="2189.6" x2="2189.6" y1="477.7" y2="507.7" class="st5"/><line x1="2202.6" x2="2202.6" y1="477.7" y2="507.7" class="st5"/><line x1="2215.1" x2="2215.1" y1="477.7" y2="507.7" class="st5"/><line x1="2228.1" x2="2228.1" y1="477.7" y2="507.7" class="st5"/><line x1="2252.7" x2="2252.7" y1="477.7" y2="507.7" class="st5"/><line x1="2265.4" x2="2265.4" y1="477.7" y2="507.7" class="st5"/><line x1="2278.2" x2="2278.2" y1="477.7" y2="507.7" class="st5"/><line x1="2290.9" x2="2290.9" y1="477.7" y2="507.7" class="st5"/><line x1="2304" x2="2304" y1="448.7" y2="507.7" class="st4"/><line x1="2240.6" x2="2240.6" y1="457.7" y2="507.7" class="st5"/><line x1="2316.5" x2="2316.5" y1="477.7" y2="507.7" class="st5"/><line x1="2329.4" x2="2329.4" y1="477.7" y2="507.7" class="st5"/><line x1="2342" x2="2342" y1="477.7" y2="507.7" class="st5"/><line x1="2355" x2="2355" y1="477.7" y2="507.7" class="st5"/><line x1="2379.6" x2="2379.6" y1="477.7" y2="507.7" class="st5"/><line x1="2392.3" x2="2392.3" y1="477.7" y2="507.7" class="st5"/><line x1="2405" x2="2405" y1="477.7" y2="507.7" class="st5"/><line x1="2417.8" x2="2417.8" y1="477.7" y2="507.7" class="st5"/><line x1="2430.8" x2="2430.8" y1="448.7" y2="507.7" class="st4"/><line x1="2367.4" x2="2367.4" y1="457.7" y2="507.7" class="st5"/><line x1="2443.3" x2="2443.3" y1="477.7" y2="507.7" class="st5"/><line x1="2456.3" x2="2456.3" y1="477.7" y2="507.7" class="st5"/><line x1="2468.8" x2="2468.8" y1="477.7" y2="507.7" class="st5"/><line x1="2481.8" x2="2481.8" y1="477.7" y2="507.7" class="st5"/><line x1="2506.4" x2="2506.4" y1="477.7" y2="507.7" class="st5"/><line x1="2519.1" x2="2519.1" y1="477.7" y2="507.7" class="st5"/><line x1="2531.9" x2="2531.9" y1="477.7" y2="507.7" class="st5"/><line x1="2544.6" x2="2544.6" y1="477.7" y2="507.7" class="st5"/><line x1="2557.7" x2="2557.7" y1="448.7" y2="507.7" class="st4"/><line x1="2494.3" x2="2494.3" y1="457.7" y2="507.7" class="st5"/></g><g><line x1="758.8" x2="758.8" y1="311.3" y2="361.3" class="st6"/><line x1="778.9" x2="778.9" y1="311.3" y2="341.3" class="st5"/><line x1="798.9" x2="798.9" y1="311.3" y2="361.3" class="st5"/><line x1="818.8" x2="818.8" y1="311.3" y2="341.3" class="st5"/><line x1="839.1" x2="839.1" y1="311.3" y2="361.3" class="st5"/><line x1="859" x2="859" y1="311.3" y2="341.3" class="st5"/><line x1="879.1" x2="879.1" y1="311.3" y2="361.3" class="st5"/><line x1="899" x2="899" y1="311.3" y2="341.3" class="st5"/><line x1="919" x2="919" y1="311.3" y2="361.3" class="st5"/><line x1="939" x2="939" y1="311.3" y2="341.3" class="st5"/><line x1="959" x2="959" y1="311.3" y2="361.3" class="st5"/><line x1="978.9" x2="978.9" y1="311.3" y2="341.3" class="st5"/><line x1="999" x2="999" y1="311.3" y2="361.3" class="st5"/><line x1="1018.9" x2="1018.9" y1="311.3" y2="341.3" class="st5"/><line x1="1038.9" x2="1038.9" y1="311.3" y2="361.3" class="st5"/><line x1="1058.8" x2="1058.8" y1="311.3" y2="341.3" class="st5"/><line x1="1078.8" x2="1078.8" y1="311.3" y2="361.3" class="st6"/><line x1="438.8" x2="438.8" y1="311.3" y2="361.3" class="st6"/><line x1="458.9" x2="458.9" y1="311.3" y2="341.3" class="st5"/><line x1="478.9" x2="478.9" y1="311.3" y2="361.3" class="st5"/><line x1="498.8" x2="498.8" y1="311.3" y2="341.3" class="st5"/><line x1="519.1" x2="519.1" y1="311.3" y2="361.3" class="st5"/><line x1="539" x2="539" y1="311.3" y2="341.3" class="st5"/><line x1="559.1" x2="559.1" y1="311.3" y2="361.3" class="st5"/><line x1="579" x2="579" y1="311.3" y2="341.3" class="st5"/><line x1="599" x2="599" y1="311.3" y2="361.3" class="st5"/><line x1="619" x2="619" y1="311.3" y2="341.3" class="st5"/><line x1="639" x2="639" y1="311.3" y2="361.3" class="st5"/><line x1="658.9" x2="658.9" y1="311.3" y2="341.3" class="st5"/><line x1="679" x2="679" y1="311.3" y2="361.3" class="st5"/><line x1="698.9" x2="698.9" y1="311.3" y2="341.3" class="st5"/><line x1="718.9" x2="718.9" y1="311.3" y2="361.3" class="st5"/><line x1="738.8" x2="738.8" y1="311.3" y2="341.3" class="st5"/><path id="path6323" d="M1408.1,326.4" class="st7"/><line x1="1098.9" x2="1098.9" y1="311.3" y2="341.3" class="st5"/><line x1="1118.9" x2="1118.9" y1="311.3" y2="361.3" class="st5"/><line x1="1138.8" x2="1138.8" y1="311.3" y2="341.3" class="st5"/><line x1="1159.1" x2="1159.1" y1="311.3" y2="361.3" class="st5"/><line x1="1179" x2="1179" y1="311.3" y2="341.3" class="st5"/><line x1="1199.1" x2="1199.1" y1="311.3" y2="361.3" class="st5"/><line x1="1219" x2="1219" y1="311.3" y2="341.3" class="st5"/><line x1="1239" x2="1239" y1="311.3" y2="361.3" class="st5"/><line x1="1259" x2="1259" y1="311.3" y2="341.3" class="st5"/><line x1="1279" x2="1279" y1="311.3" y2="361.3" class="st5"/><line x1="1298.9" x2="1298.9" y1="311.3" y2="341.3" class="st5"/><line x1="1319" x2="1319" y1="311.3" y2="361.3" class="st5"/><line x1="1338.9" x2="1338.9" y1="311.3" y2="341.3" class="st5"/><line x1="1358.9" x2="1358.9" y1="311.3" y2="361.3" class="st5"/><line x1="1378.8" x2="1378.8" y1="311.3" y2="341.3" class="st5"/><line x1="1398.5" x2="1398.5" y1="311.3" y2="361.3" class="st6"/><line x1="1418.5" x2="1418.5" y1="311.3" y2="341.3" class="st5"/><line x1="1438.6" x2="1438.6" y1="311.3" y2="361.3" class="st5"/><line x1="1458.5" x2="1458.5" y1="311.3" y2="341.3" class="st5"/><line x1="1478.8" x2="1478.8" y1="311.3" y2="361.3" class="st5"/><line x1="1498.7" x2="1498.7" y1="311.3" y2="341.3" class="st5"/><line x1="1518.7" x2="1518.7" y1="311.3" y2="361.3" class="st5"/><line x1="1538.7" x2="1538.7" y1="311.3" y2="341.3" class="st5"/><line x1="1558.7" x2="1558.7" y1="311.3" y2="361.3" class="st5"/><line x1="1578.6" x2="1578.6" y1="311.3" y2="341.3" class="st5"/><line x1="1598.7" x2="1598.7" y1="311.3" y2="361.3" class="st5"/><line x1="1618.6" x2="1618.6" y1="311.3" y2="341.3" class="st5"/><line x1="1638.6" x2="1638.6" y1="311.3" y2="361.3" class="st5"/><line x1="1658.6" x2="1658.6" y1="311.3" y2="341.3" class="st5"/><line x1="1678.5" x2="1678.5" y1="311.3" y2="361.3" class="st5"/><line x1="1698.5" x2="1698.5" y1="311.3" y2="341.3" class="st5"/><line x1="1718.5" x2="1718.5" y1="311.3" y2="361.3" class="st6"/><line x1="1738.5" x2="1738.5" y1="311.3" y2="341.3" class="st5"/><line x1="1758.6" x2="1758.6" y1="311.3" y2="361.3" class="st5"/><line x1="1778.5" x2="1778.5" y1="311.3" y2="341.3" class="st5"/><line x1="1798.8" x2="1798.8" y1="311.3" y2="361.3" class="st5"/><line x1="1818.7" x2="1818.7" y1="311.3" y2="341.3" class="st5"/><line x1="1838.7" x2="1838.7" y1="311.3" y2="361.3" class="st5"/><line x1="1858.7" x2="1858.7" y1="311.3" y2="341.3" class="st5"/><line x1="1878.7" x2="1878.7" y1="311.3" y2="361.3" class="st5"/><line x1="1898.6" x2="1898.6" y1="311.3" y2="341.3" class="st5"/><line x1="1918.7" x2="1918.7" y1="311.3" y2="361.3" class="st5"/><line x1="1938.6" x2="1938.6" y1="311.3" y2="341.3" class="st5"/><line x1="1958.6" x2="1958.6" y1="311.3" y2="361.3" class="st5"/><line x1="1978.6" x2="1978.6" y1="311.3" y2="341.3" class="st5"/><line x1="1998.5" x2="1998.5" y1="311.3" y2="361.3" class="st5"/><line x1="2018.5" x2="2018.5" y1="311.3" y2="341.3" class="st5"/><line x1="2038.5" x2="2038.5" y1="311.3" y2="361.3" class="st6"/><line x1="2058.3" x2="2058.3" y1="311.3" y2="341.3" class="st5"/><line x1="2078.4" x2="2078.4" y1="311.3" y2="361.3" class="st5"/><line x1="2098.3" x2="2098.3" y1="311.3" y2="341.3" class="st5"/><line x1="2118.6" x2="2118.6" y1="311.3" y2="361.3" class="st5"/><line x1="2138.5" x2="2138.5" y1="311.3" y2="341.3" class="st5"/><line x1="2158.5" x2="2158.5" y1="311.3" y2="361.3" class="st5"/><line x1="2178.4" x2="2178.4" y1="311.3" y2="341.3" class="st5"/><line x1="2198.5" x2="2198.5" y1="311.3" y2="361.3" class="st5"/><line x1="2218.4" x2="2218.4" y1="311.3" y2="341.3" class="st5"/><line x1="2238.5" x2="2238.5" y1="311.3" y2="361.3" class="st5"/><line x1="2258.4" x2="2258.4" y1="311.3" y2="341.3" class="st5"/><line x1="2278.4" x2="2278.4" y1="311.3" y2="361.3" class="st5"/><line x1="2298.3" x2="2298.3" y1="311.3" y2="341.3" class="st5"/><line x1="2318.3" x2="2318.3" y1="311.3" y2="361.3" class="st5"/><line x1="2338.2" x2="2338.2" y1="311.3" y2="341.3" class="st5"/><line x1="2358.3" x2="2358.3" y1="311.3" y2="361.3" class="st6"/></g><text class="st8 st9" transform="matrix(1 0 0 1 429.6458 393.6091)">0</text><path id="path2760" d="M208.3,920.6c-8.7,0-9.6,3.2-9.6,9.6c0,5.8,0,99,0,119c13.3,5.2,28.5,8,45.6,8 c0-15.9,0-82.4,0-136.6C232.9,920.6,214.9,920.6,208.3,920.6z" class="st10"/><path id="path2765" d="M245.3,22.5c0,5.5-0.4,158.6-0.5,200.1h33.5V54.3C260.4,33.3,245.4,22.6,245.3,22.5z" class="st11"/><path id="path2770" d="M558.3,23.1v189.5h-11.8v36.7h135.3V311H496.6c0,0-16.8-33.2-16.8-90.6S496.9,79.1,558.3,23.1z" class="st3"/><path id="path2786" d="M587.6,581.9v34L558,616v441.5c0,0,88.8,5.4,118.9-107.2c30.2-112.6,70.2-262,76.9-287.1 s22.9-35.3,61.1-35.3s394.3,0,394.3,0v-46.1H587.6V581.9z" class="st12"/><path id="path2816" d="M557.9,921.1v136.4c0,0,21.5,1.3,47-10.8c0-29.2,0-109.9,0-115.7c0-6.9-3.6-9.8-9.8-9.8 C589.5,921.1,564.8,921.1,557.9,921.1z" class="st10"/><path id="text2827" d="M98.3,451.2v-17.5h1.9v17.5H98.3 M103.5,451.2v-17.5h1.9l7.5,13.7v-13.7h1.8v17.5h-1.9l-7.5-13.7v13.7 H103.5 M117.4,442.6c0-2.9,0.6-5.2,1.9-6.8c1.3-1.6,2.9-2.5,4.9-2.5c1.3,0,2.5,0.4,3.6,1.2c1.1,0.8,1.9,1.8,2.4,3.2 c0.6,1.4,0.8,2.9,0.8,4.7c0,1.8-0.3,3.4-0.9,4.8c-0.6,1.4-1.4,2.5-2.5,3.2c-1.1,0.7-2.2,1.1-3.5,1.1s-2.6-0.4-3.6-1.2 c-1.1-0.8-1.9-1.9-2.4-3.3C117.7,445.6,117.4,444.2,117.4,442.6 M119.4,442.7c0,2.1,0.5,3.8,1.4,5s2.1,1.8,3.5,1.8 s2.6-0.6,3.5-1.8c0.9-1.2,1.4-3,1.4-5.2c0-1.4-0.2-2.7-0.6-3.7c-0.4-1.1-1-1.9-1.7-2.5c-0.8-0.6-1.6-0.9-2.5-0.9 c-1.3,0-2.5,0.6-3.5,1.7C119.9,438.2,119.4,440,119.4,442.7 M132.1,451.2l5.5-9.1l-4.9-8.4h2.3l2.6,4.5c0.5,0.9,0.9,1.6,1.2,2.1 c0.3-0.6,0.7-1.3,1.1-2l2.9-4.6h2.1l-5,8.2l5.4,9.2H143l-3.6-6.2c-0.2-0.4-0.4-0.7-0.6-1.2c-0.3,0.6-0.5,1.1-0.7,1.3l-3.6,6.1 h-2.4 M155.8,451.2v-15.4h-4.7v-2.1h11.3v2.1h-4.7v15.4H155.8 M164.4,451.2v-17.5h10.4v2.1h-8.5v5.4h7.9v2.1h-7.9v6h8.8v2.1h-10.7 M177.7,451.2v-17.5h2.9l3.4,12.4c0.3,1.2,0.5,2,0.7,2.6c0.2-0.6,0.4-1.6,0.8-2.8l3.4-12.2h2.5v17.5h-1.8v-14.6l-4.2,14.6h-1.7 l-4.1-14.9v14.9H177.7 M194.4,451.2v-17.5h5.4c1,0,1.7,0.1,2.2,0.2c0.7,0.1,1.3,0.4,1.8,0.8s0.9,1,1.1,1.7 c0.3,0.7,0.4,1.5,0.4,2.4c0,1.5-0.4,2.7-1.2,3.8c-0.8,1-2.2,1.5-4.2,1.5h-3.7v7.1H194.4 M196.3,442h3.7c1.2,0,2.1-0.3,2.6-0.8 c0.5-0.6,0.8-1.3,0.8-2.4c0-0.7-0.2-1.4-0.5-1.9s-0.7-0.9-1.2-1c-0.3-0.1-0.9-0.2-1.8-0.2h-3.7L196.3,442 M139,476.2v2.1h-9.5 c0-0.5,0.1-1,0.2-1.5c0.2-0.8,0.6-1.6,1.2-2.3c0.5-0.8,1.3-1.6,2.3-2.6c1.6-1.6,2.6-2.8,3.2-3.7c0.5-0.9,0.8-1.8,0.8-2.6 c0-0.9-0.3-1.6-0.8-2.1c-0.5-0.6-1.1-0.9-1.9-0.9c-0.8,0-1.5,0.3-2,0.9s-0.8,1.5-0.8,2.6l-1.8-0.2c0.1-1.6,0.6-2.9,1.4-3.8 c0.8-0.9,1.9-1.3,3.3-1.3c1.4,0,2.5,0.5,3.3,1.4s1.2,2.1,1.2,3.5c0,0.7-0.1,1.4-0.4,2.1c-0.2,0.7-0.6,1.4-1.2,2.1 c-0.5,0.7-1.4,1.8-2.7,3.1c-1.1,1.1-1.7,1.8-2,2.2c-0.3,0.4-0.5,0.8-0.7,1.2h6.9 M140.9,469.7c0-2.1,0.2-3.7,0.5-5 c0.4-1.3,0.9-2.2,1.6-2.9c0.7-0.7,1.6-1,2.6-1c0.8,0,1.4,0.2,2,0.6s1.1,0.9,1.4,1.6c0.4,0.7,0.7,1.6,0.9,2.6s0.3,2.4,0.3,4.1 c0,2.1-0.2,3.7-0.5,5s-0.9,2.2-1.6,2.9c-0.7,0.7-1.5,1-2.6,1c-1.4,0-2.5-0.6-3.3-1.8C141.4,475.3,140.9,473,140.9,469.7 M142.7,469.7c0,2.9,0.3,4.8,0.8,5.7c0.6,0.9,1.2,1.4,2,1.4s1.5-0.5,2-1.4c0.6-1,0.8-2.9,0.8-5.7c0-2.9-0.3-4.8-0.8-5.7 c-0.5-0.9-1.2-1.4-2.1-1.4c-0.8,0-1.5,0.4-1.9,1.3C143,464.8,142.7,466.8,142.7,469.7 M156.2,461.7c-0.5,0-1,0.2-1.3,0.7 c-0.4,0.4-0.5,1-0.5,1.6s0.2,1.2,0.5,1.6c0.4,0.4,0.8,0.6,1.3,0.6s1-0.2,1.3-0.6c0.4-0.4,0.5-1,0.5-1.6s-0.2-1.2-0.5-1.6 C157.1,461.9,156.7,461.7,156.2,461.7 M156.2,460.2c0.4,0,0.8,0.1,1.2,0.3c0.4,0.2,0.7,0.5,1,0.8c0.3,0.4,0.5,0.8,0.7,1.2 c0.1,0.5,0.2,0.9,0.2,1.5c0,1-0.3,1.9-0.9,2.7c-0.6,0.7-1.3,1.1-2.2,1.1s-1.6-0.4-2.2-1.1c-0.6-0.7-0.9-1.6-0.9-2.7s0.3-2,0.9-2.7 C154.6,460.5,155.3,460.2,156.2,460.2 M172.6,462.1v2.5c-0.7-0.7-1.4-1.3-2.2-1.6c-0.8-0.4-1.6-0.5-2.5-0.5c-1.7,0-3,0.6-3.9,1.8 c-0.9,1.2-1.4,3-1.4,5.3s0.5,4,1.4,5.2s2.2,1.8,3.9,1.8c0.9,0,1.7-0.2,2.5-0.5c0.8-0.4,1.5-0.9,2.2-1.6v2.4 c-0.7,0.6-1.5,1-2.2,1.3c-0.8,0.3-1.6,0.4-2.5,0.4c-2.3,0-4-0.8-5.3-2.4s-1.9-3.8-1.9-6.6c0-2.8,0.6-5,1.9-6.6 c1.3-1.6,3.1-2.4,5.3-2.4c0.9,0,1.7,0.1,2.5,0.4C171.1,461.2,171.9,461.6,172.6,462.1"/><text class="st8 st13" transform="matrix(1 0 0 1 265.8972 442.2285)">0</text><text class="st8 st14" transform="matrix(1 0 0 1 390.3018 442.2288)">1</text><text class="st8 st14" transform="matrix(1 0 0 1 515.8807 442.2288)">2</text><text class="st8 st14" transform="matrix(1 0 0 1 642.3281 442.2288)">3</text><text class="st8 st14" transform="matrix(1 0 0 1 768.9518 442.2288)">4</text><text class="st8 st14" transform="matrix(1 0 0 1 894.0308 442.2288)">5</text><text class="st8 st14" transform="matrix(1 0 0 1 1019.6099 442.2288)">6</text><text class="st8 st14" transform="matrix(1 0 0 1 1143.8943 442.2288)">7</text><text class="st8 st14" transform="matrix(1 0 0 1 1271.5626 442.2288)">8</text><text class="st8 st14" transform="matrix(1 0 0 1 1396.818 442.2288)">9</text><text class="st8 st14" transform="matrix(1 0 0 1 1536.1379 442.2288)">10</text><text class="st8 st14" transform="matrix(1 0 0 1 1662.688 442.2288)">11</text><text class="st8 st14" transform="matrix(1 0 0 1 1788.0616 442.2288)">12</text><text class="st8 st14" transform="matrix(1 0 0 1 1914.6117 442.2288)">13</text><text class="st8 st14" transform="matrix(1 0 0 1 2040.5144 442.2288)">14</text><text class="st8 st14" transform="matrix(1 0 0 1 2166.2407 442.2288)">15</text><text class="st8 st14" transform="matrix(1 0 0 1 2291.8933 442.2288)">16</text><text class="st8 st14" transform="matrix(1 0 0 1 2417.7959 442.2288)">17</text><text class="st15 st8 st16" transform="matrix(1 0 0 1 2573.8979 498.8696)">cm</text><path id="path5978" d="M634.1,481.4v28.1" class="st17"/><path id="path5982" d="M682.8,481.4v28.1" class="st17"/><path id="path5986" d="M732,481.4v28.1" class="st17"/><path id="path5990" d="M781.2,481.4v28.1" class="st17"/><path id="path5994" d="M830.4,481.4v28.1" class="st17"/><path id="path5998" d="M879,481.4v28.1" class="st17"/><path id="path6002" d="M928.2,481.4v28.1" class="st17"/><path id="path6006" d="M977.1,481.4v28.1" class="st17"/><path id="path6010" d="M1026.3,481.4v28.1" class="st17"/><path id="path6014" d="M1076,481.4v28.1" class="st17"/><path d="M0,0" class="st18"/><path id="path6076" d="M210.9,789.2" class="st7"/><path d="M0,0" class="st19"/><g><line x1="219.1" x2="591.8" y1="789.2" y2="789.2" class="st20"/><path id="path6189" d="M203.1,789.2c0-4.4,3.6-8,8-8s8,3.6,8,8s-3.6,8-8,8S203.1,793.6,203.1,789.2z" class="st21"/><path id="path6189_1_" d="M607.8,789.2c0,4.4-3.6,8-8,8s-8-3.6-8-8s3.6-8,8-8S607.8,784.7,607.8,789.2z" class="st21"/></g><path id="path6258" d="M599.9,789.2" class="st7"/><path id="path6264" d="M440.1,791.7c0,19.2-15.6,34.8-34.8,34.8c-19.2,0-34.8-15.6-34.8-34.8s15.6-34.8,34.8-34.8 S440.1,772.5,440.1,791.7L440.1,791.7z" class="st22"/><text class="st8 st23" transform="matrix(1 0 0 1 390.1005 811.82)">1</text><path d="M0,0" class="st18"/><path id="path6189_2_" d="M271.1,97.7c0-4.4,3.6-8,8-8s8,3.6,8,8s-3.6,8-8,8S271.1,102.2,271.1,97.7z" class="st21"/><path d="M0,0" class="st19"/><path id="path6269" d="M531,743.7" class="st7"/><g><line x1="278.9" x2="522.9" y1="97.7" y2="98.2" class="st20"/><path id="path6267" d="M278.9,97.7" class="st7"/><path id="path6189_3_" d="M538.9,98.2c0,4.4-3.6,8-8,8s-8-3.6-8-8s3.6-8,8-8C535.3,90.2,538.9,93.8,538.9,98.2z" class="st21"/><g id="g3546"><path id="path6271" d="M438.6,98.5c0,19.2-15.6,34.8-34.8,34.8c-19.2,0-34.8-15.6-34.8-34.8s15.6-34.8,34.8-34.8 S438.6,79.3,438.6,98.5L438.6,98.5z" class="st22"/><text class="st8 st23" transform="matrix(1 0 0 1 388.9735 118.6487)">2</text></g></g><text class="st8 st9" transform="matrix(1 0 0 1 747.4597 392.4064)">1</text><text class="st8 st9" transform="matrix(1 0 0 1 1067.8805 393.0536)">2</text><text class="st8 st9" transform="matrix(1 0 0 1 1387.6539 392.4064)">3</text><text class="st8 st9" transform="matrix(1 0 0 1 1702.8962 391.1118)">4</text><text class="st8 st9" transform="matrix(1 0 0 1 2024.9352 392.0828)">5</text><text class="st8 st9" transform="matrix(1 0 0 1 2345.6794 392.4064)">6</text><path d="M0,0" class="st18"/><path id="path6301" d="M851.5,309.9" class="st7"/><path d="M0,0" class="st18"/><path d="M0,0" class="st19"/><path id="path6342" d="M2834.9,410.3" class="st7"/><text class="st15 st8 st24" transform="matrix(1 0 0 1 2377.9675 344.9326)">inch</text><path d="M0,0" class="st18"/><path id="path6367" d="M1492.5,494.2" class="st7"/><path d="M0,0" class="st18"/><path id="path6189_8_" d="M1111.5,243.6c4.4,0,8-3.6,8-8s-3.6-8-8-8s-8,3.6-8,8S1107.1,243.6,1111.5,243.6z" class="st21"/><path id="path6376" d="M1135.9,654.7" class="st7"/><path d="M0,0" class="st18"/><path id="path6388" d="M820.2,517.3" class="st7"/><g><path id="path6189_7_" d="M1492.5,486.4c4.4,0,8,3.6,8,8s-3.6,8-8,8s-8-3.6-8-8S1488.1,486.4,1492.5,486.4z" class="st21"/><g id="g6486" transform="translate(25.53991,19.79605)"><path id="path6369" d="M1504.5,771.8c0-19.5-15.8-35.3-35.3-35.3s-35.3,15.8-35.3,35.3s15.8,35.3,35.3,35.3 S1504.5,791.3,1504.5,771.8z" class="st22"/><text class="st8 st23" transform="matrix(1 0 0 1 1453.244 791.4332)">4</text></g><line x1="1492.5" x2="1492.5" y1="494.2" y2="756.3" class="st20"/></g><g><g id="g6536" transform="translate(25.53991,19.79605)"><path id="path6378" d="M1121.3,78.4c0-19.5-15.8-35.3-35.3-35.3s-35.3,15.8-35.3,35.3s15.8,35.3,35.3,35.3 S1121.3,97.9,1121.3,78.4z" class="st22"/><text class="st8 st23" transform="matrix(1 0 0 1 1070.5557 98.2079)">8</text></g><line x1="1111.5" x2="1111.5" y1="235.8" y2="134.1" class="st20"/></g><g><path id="path6189_6_" d="M2834.9,402.4c4.4,0,8,3.6,8,8s-3.6,8-8,8s-8-3.6-8-8S2830.5,402.4,2834.9,402.4z" class="st21"/><g id="g6469" transform="translate(25.53991,19.79605)"><path id="path6344" d="M2845.1,593.8c0-19.5-15.8-35.3-35.3-35.3s-35.3,15.8-35.3,35.3s15.8,35.3,35.3,35.3 S2845.1,613.2,2845.1,593.8z" class="st22"/><text class="st8 st23" transform="matrix(1 0 0 1 2794.4243 613.5475)">3</text></g><line x1="2834.9" x2="2835.4" y1="410.3" y2="578.3" class="st20"/></g><rect width="12.2" height="16" x="1105.4" y="234.4" class="st25"/><path d="M1124.6,244.7h-26c-2.3,0-4.2-1.9-4.2-4.2V226c0-2.3,1.9-4.2,4.2-4.2h26c2.3,0,4.2,1.9,4.2,4.2v14.5 C1128.7,242.8,1126.9,244.7,1124.6,244.7z" class="st26"/><path id="path1873_00000068656160011660256750000010114717679131437990_" d="M244.7,244.4c0,0-196.5,0-206.2,0 s-10.2,4.9-10.2,10.2s0,316.7,0,316.7s96.2,359,108.8,406.2c12.7,47.2,48.9,79.9,107.2,79.9c0-63.8,0-547.6,0-547.6h2454.9V311 h-2318v7.4h-44.7c0,0,0-26.5,0-105.5c0-125.1-91-190-91.3-190.3C245.3,28.7,244.7,230.9,244.7,244.4z" class="st27"/><text class="st8 st14" transform="matrix(1 0 0 1 2535.6577 442.708)">18</text><g><path id="rect5932" d="M682.2,279.9l0.1,48.2h526.1v-48.2H682.2z" class="st28"/><path id="path5937" d="M764,286v41.2" class="st29"/><path id="path5939" d="M834,286v41.2" class="st29"/><path id="path5941" d="M903.4,286v41.2" class="st29"/><path id="path5943" d="M799,300.8v26.5" class="st30"/><path id="path5945" d="M869,300.8v26.5" class="st30"/><path id="path5947" d="M782.2,312.5v15.8" class="st17"/><path id="path5949" d="M816.7,312.5v15.8" class="st17"/><path id="path5951" d="M851.7,312.5v15.8" class="st17"/><path id="path5953" d="M886.2,312.5v15.8" class="st17"/><text class="st8 st16" transform="matrix(1 0 0 1 769.0201 305.6066)">0</text><text class="st8 st16" transform="matrix(1 0 0 1 817.9963 305.6066)">4</text><text class="st8 st31" transform="matrix(1 0 0 1 921.2076 314.0021)">1/128</text><text class="st8 st16" transform="matrix(1 0 0 1 885.9465 305.1488)">8</text></g><g><g id="g6517" transform="translate(25.53991,19.79605)"><path id="path6307" d="M712.6,73.4c0,19.5-15.8,35.3-35.3,35.3S642,92.9,642,73.4s15.8-35.3,35.3-35.3 S712.6,53.9,712.6,73.4z" class="st22"/><text class="st8 st23" transform="matrix(1 0 0 1 661.8014 93.1249)">7</text></g><g><path id="path6189_4_" d="M702.3,312.1c-4.4,0-8-3.6-8-8s3.6-8,8-8s8,3.6,8,8S706.7,312.1,702.3,312.1z" class="st21"/><line x1="702.3" x2="702.8" y1="304.3" y2="128.5" class="st20"/></g></g><g><rect id="rect2779" width="620.8" height="68.5" x="588.6" y="489.1" class="st32"/><path id="path5972" d="M609.2,489.2v46.2" class="st29"/><path id="path5976" d="M658.8,488.9v41.7" class="st30"/><path id="path5980" d="M707.6,488.9v41.7" class="st30"/><path id="path5984" d="M756.8,488.9v41.7" class="st30"/><path id="path5988" d="M806,488.9v41.7" class="st30"/><path id="path5992" d="M855.2,488.9v41.7" class="st30"/><path id="path5996" d="M903.7,488.9v41.7" class="st30"/><path id="path6000" d="M952.9,488.9v41.7" class="st30"/><path id="path6004" d="M1001.9,488.9v41.7" class="st30"/><path id="path6008" d="M1051.1,488.9v41.7" class="st30"/><path id="path6018" d="M1100.8,489.2v46.2" class="st29"/><text class="st8 st16" transform="matrix(1 0 0 1 614.2131 532.1784)">0</text><text class="st8 st16" transform="matrix(1 0 0 1 642.326 532.1784)">1</text><text class="st8 st16" transform="matrix(1 0 0 1 691.3022 531.9495)">2</text><text class="st8 st16" transform="matrix(1 0 0 1 739.8206 531.4918)">3</text><text class="st8 st16" transform="matrix(1 0 0 1 789.2544 531.9495)">4</text><text class="st8 st16" transform="matrix(1 0 0 1 838.0017 531.0341)">5</text><text class="st8 st16" transform="matrix(1 0 0 1 887.2065 531.7206)">6</text><text class="st8 st16" transform="matrix(1 0 0 1 936.4116 531.7206)">7</text><text class="st8 st16" transform="matrix(1 0 0 1 984.9299 532.1784)">8</text><text class="st8 st16" transform="matrix(1 0 0 1 1034.1349 532.1784)">9</text><text class="st8 st16" transform="matrix(1 0 0 1 1082.6533 532.1398)">0</text><text class="st8 st33" transform="matrix(1 0 0 1 1135.9 530.6)">1/20</text></g><g><path id="path6189_9_" d="M820.2,509.4c4.4,0,8,3.6,8,8s-3.6,8-8,8s-8-3.6-8-8S815.8,509.4,820.2,509.4z" class="st21"/><g id="g6504" transform="translate(25.53991,19.7959)"><path id="path6390" d="M832.2,771.7c0-19.5-15.8-35.3-35.3-35.3s-35.3,15.8-35.3,35.3s15.8,35.3,35.3,35.3 S832.2,791.1,832.2,771.7z" class="st22"/><text class="st8 st23" transform="matrix(1 0 0 1 781.197 791.4338)">6</text></g><line x1="820.2" x2="822.5" y1="517.3" y2="756.2" class="st20"/></g><g><path id="path6189_5_" d="M1408.1,334.2c-4.4,0-8-3.6-8-8s3.6-8,8-8s8,3.6,8,8S1412.5,334.2,1408.1,334.2z" class="st21"/><g id="g6669" transform="matrix(0.978367,0,0,0.978367,54.51297,25.31978)"><path id="path6671" d="M1418.3,79c0,19.5-15.8,35.3-35.3,35.3s-35.3-15.8-35.3-35.3s15.8-35.3,35.3-35.3 S1418.3,59.5,1418.3,79z" class="st34"/><text class="st8 st23" transform="matrix(1.0221 0 0 1.0221 1366.7542 98.8606)">5</text></g><line x1="1407.7" x2="1408.1" y1="137.1" y2="326.4" class="st20"/></g><text class="st8 st35" transform="matrix(1 0 0 1 1246.4346 950.4346)">vv</text></g></switch></svg>